<svg width="450" height="350" viewBox="0 0 450 350" fill="none" xmlns="http://www.w3.org/2000/svg">
<rect width="450" height="350" fill="#28323F"/>
<rect x="57" y="113" width="125" height="125" rx="10" fill="#28323F"/>
<path d="M120.301 134L163.603 209L120.301 166L77 209L120.301 134Z" fill="white"/>
<circle cx="120.801" cy="174.5" r="11" fill="white" stroke="#28323F" stroke-width="3"/>
<path d="M99.3013 209C99.3013 203.165 101.566 197.569 105.598 193.444C109.63 189.318 115.099 187 120.801 187C126.503 187 131.972 189.318 136.004 193.444C140.036 197.569 142.301 203.165 142.301 209L120.801 209L99.3013 209Z" fill="white"/>
<path d="M204.99 195.44C202.057 195.44 199.343 194.963 196.85 194.01C194.393 193.02 192.248 191.645 190.415 189.885C188.618 188.088 187.207 185.998 186.18 183.615C185.153 181.232 184.64 178.61 184.64 175.75C184.64 172.89 185.153 170.268 186.18 167.885C187.207 165.502 188.637 163.43 190.47 161.67C192.303 159.873 194.448 158.498 196.905 157.545C199.398 156.555 202.112 156.06 205.045 156.06C208.015 156.06 210.747 156.573 213.24 157.6C215.77 158.59 217.915 160.075 219.675 162.055L216.1 165.52C214.633 163.98 212.983 162.843 211.15 162.11C209.317 161.34 207.355 160.955 205.265 160.955C203.102 160.955 201.085 161.322 199.215 162.055C197.382 162.788 195.787 163.815 194.43 165.135C193.073 166.455 192.01 168.032 191.24 169.865C190.507 171.662 190.14 173.623 190.14 175.75C190.14 177.877 190.507 179.857 191.24 181.69C192.01 183.487 193.073 185.045 194.43 186.365C195.787 187.685 197.382 188.712 199.215 189.445C201.085 190.178 203.102 190.545 205.265 190.545C207.355 190.545 209.317 190.178 211.15 189.445C212.983 188.675 214.633 187.502 216.1 185.925L219.675 189.39C217.915 191.37 215.77 192.873 213.24 193.9C210.747 194.927 207.997 195.44 204.99 195.44ZM226.214 195V154.19H231.494V195H226.214ZM259.67 195V188.84L259.395 187.685V177.18C259.395 174.943 258.735 173.22 257.415 172.01C256.132 170.763 254.189 170.14 251.585 170.14C249.862 170.14 248.175 170.433 246.525 171.02C244.875 171.57 243.482 172.322 242.345 173.275L240.145 169.315C241.649 168.105 243.445 167.188 245.535 166.565C247.662 165.905 249.88 165.575 252.19 165.575C256.187 165.575 259.267 166.547 261.43 168.49C263.594 170.433 264.675 173.403 264.675 177.4V195H259.67ZM250.1 195.33C247.937 195.33 246.03 194.963 244.38 194.23C242.767 193.497 241.52 192.488 240.64 191.205C239.76 189.885 239.32 188.4 239.32 186.75C239.32 185.173 239.687 183.743 240.42 182.46C241.19 181.177 242.419 180.15 244.105 179.38C245.829 178.61 248.139 178.225 251.035 178.225H260.275V182.02H251.255C248.615 182.02 246.837 182.46 245.92 183.34C245.004 184.22 244.545 185.283 244.545 186.53C244.545 187.96 245.114 189.115 246.25 189.995C247.387 190.838 248.964 191.26 250.98 191.26C252.96 191.26 254.684 190.82 256.15 189.94C257.654 189.06 258.735 187.777 259.395 186.09L260.44 189.72C259.744 191.443 258.515 192.818 256.755 193.845C254.995 194.835 252.777 195.33 250.1 195.33ZM282.806 195.33C280.386 195.33 278.076 195 275.876 194.34C273.713 193.68 272.008 192.873 270.761 191.92L272.961 187.74C274.208 188.583 275.748 189.298 277.581 189.885C279.415 190.472 281.285 190.765 283.191 190.765C285.648 190.765 287.408 190.417 288.471 189.72C289.571 189.023 290.121 188.052 290.121 186.805C290.121 185.888 289.791 185.173 289.131 184.66C288.471 184.147 287.591 183.762 286.491 183.505C285.428 183.248 284.236 183.028 282.916 182.845C281.596 182.625 280.276 182.368 278.956 182.075C277.636 181.745 276.426 181.305 275.326 180.755C274.226 180.168 273.346 179.38 272.686 178.39C272.026 177.363 271.696 176.007 271.696 174.32C271.696 172.56 272.191 171.02 273.181 169.7C274.171 168.38 275.565 167.372 277.361 166.675C279.195 165.942 281.358 165.575 283.851 165.575C285.758 165.575 287.683 165.813 289.626 166.29C291.606 166.73 293.22 167.372 294.466 168.215L292.211 172.395C290.891 171.515 289.516 170.91 288.086 170.58C286.656 170.25 285.226 170.085 283.796 170.085C281.486 170.085 279.763 170.47 278.626 171.24C277.49 171.973 276.921 172.927 276.921 174.1C276.921 175.09 277.251 175.86 277.911 176.41C278.608 176.923 279.488 177.327 280.551 177.62C281.651 177.913 282.861 178.17 284.181 178.39C285.501 178.573 286.821 178.83 288.141 179.16C289.461 179.453 290.653 179.875 291.716 180.425C292.816 180.975 293.696 181.745 294.356 182.735C295.053 183.725 295.401 185.045 295.401 186.695C295.401 188.455 294.888 189.977 293.861 191.26C292.835 192.543 291.386 193.552 289.516 194.285C287.646 194.982 285.41 195.33 282.806 195.33ZM310.36 195.33C307.94 195.33 305.63 195 303.43 194.34C301.267 193.68 299.562 192.873 298.315 191.92L300.515 187.74C301.762 188.583 303.302 189.298 305.135 189.885C306.968 190.472 308.838 190.765 310.745 190.765C313.202 190.765 314.962 190.417 316.025 189.72C317.125 189.023 317.675 188.052 317.675 186.805C317.675 185.888 317.345 185.173 316.685 184.66C316.025 184.147 315.145 183.762 314.045 183.505C312.982 183.248 311.79 183.028 310.47 182.845C309.15 182.625 307.83 182.368 306.51 182.075C305.19 181.745 303.98 181.305 302.88 180.755C301.78 180.168 300.9 179.38 300.24 178.39C299.58 177.363 299.25 176.007 299.25 174.32C299.25 172.56 299.745 171.02 300.735 169.7C301.725 168.38 303.118 167.372 304.915 166.675C306.748 165.942 308.912 165.575 311.405 165.575C313.312 165.575 315.237 165.813 317.18 166.29C319.16 166.73 320.773 167.372 322.02 168.215L319.765 172.395C318.445 171.515 317.07 170.91 315.64 170.58C314.21 170.25 312.78 170.085 311.35 170.085C309.04 170.085 307.317 170.47 306.18 171.24C305.043 171.973 304.475 172.927 304.475 174.1C304.475 175.09 304.805 175.86 305.465 176.41C306.162 176.923 307.042 177.327 308.105 177.62C309.205 177.913 310.415 178.17 311.735 178.39C313.055 178.573 314.375 178.83 315.695 179.16C317.015 179.453 318.207 179.875 319.27 180.425C320.37 180.975 321.25 181.745 321.91 182.735C322.607 183.725 322.955 185.045 322.955 186.695C322.955 188.455 322.442 189.977 321.415 191.26C320.388 192.543 318.94 193.552 317.07 194.285C315.2 194.982 312.963 195.33 310.36 195.33ZM330.819 206C329.425 206 328.069 205.762 326.749 205.285C325.429 204.845 324.292 204.185 323.339 203.305L325.594 199.345C326.327 200.042 327.134 200.573 328.014 200.94C328.894 201.307 329.829 201.49 330.819 201.49C332.102 201.49 333.165 201.16 334.009 200.5C334.852 199.84 335.64 198.667 336.374 196.98L338.189 192.965L338.739 192.305L350.179 165.85H355.349L341.214 197.915C340.37 199.968 339.417 201.582 338.354 202.755C337.327 203.928 336.19 204.753 334.944 205.23C333.697 205.743 332.322 206 330.819 206ZM337.749 195.935L324.439 165.85H329.939L341.269 191.81L337.749 195.935ZM360.276 195V165.85H365.336V173.715L364.511 171.625C365.465 169.718 366.931 168.233 368.911 167.17C370.891 166.107 373.201 165.575 375.841 165.575C378.225 165.575 380.315 166.033 382.111 166.95C383.945 167.867 385.375 169.26 386.401 171.13C387.428 173 387.941 175.365 387.941 178.225V195H382.661V178.83C382.661 176.007 381.965 173.88 380.571 172.45C379.215 171.02 377.29 170.305 374.796 170.305C372.926 170.305 371.295 170.672 369.901 171.405C368.508 172.138 367.426 173.22 366.656 174.65C365.923 176.08 365.556 177.858 365.556 179.985V195H360.276Z" fill="white"/>
</svg>
