<svg width="1000" height="455" viewBox="0 0 1000 455" fill="none" xmlns="http://www.w3.org/2000/svg">
<rect width="1000" height="455" fill="#353E4A"/>
<g clip-path="url(#clip0_126_374)">
<rect width="509" height="361.956" transform="translate(245 46)" fill="#F6F6F6"/>
<g filter="url(#filter0_d_126_374)">
<rect x="245" y="46" width="97.2049" height="361.956" fill="#28323F"/>
</g>
<path d="M272.886 401.23V396.777H274.763C275.238 396.777 275.655 396.87 276.016 397.057C276.381 397.243 276.663 397.504 276.862 397.839C277.066 398.174 277.168 398.562 277.168 399.004C277.168 399.445 277.066 399.833 276.862 400.168C276.663 400.503 276.381 400.764 276.016 400.951C275.655 401.137 275.238 401.23 274.763 401.23H272.886ZM273.522 400.677H274.724C275.093 400.677 275.412 400.607 275.679 400.467C275.95 400.327 276.16 400.132 276.309 399.882C276.457 399.627 276.531 399.334 276.531 399.004C276.531 398.669 276.457 398.376 276.309 398.126C276.16 397.875 275.95 397.68 275.679 397.54C275.412 397.4 275.093 397.33 274.724 397.33H273.522V400.677ZM279.555 401.269C279.194 401.269 278.876 401.194 278.6 401.046C278.329 400.897 278.117 400.694 277.964 400.435C277.816 400.176 277.741 399.879 277.741 399.544C277.741 399.209 277.813 398.912 277.958 398.654C278.106 398.395 278.308 398.193 278.562 398.049C278.821 397.901 279.111 397.827 279.434 397.827C279.76 397.827 280.049 397.899 280.299 398.043C280.549 398.187 280.744 398.391 280.884 398.654C281.029 398.912 281.101 399.216 281.101 399.563C281.101 399.589 281.099 399.619 281.094 399.653C281.094 399.687 281.092 399.718 281.088 399.748H278.218V399.309H280.77L280.522 399.462C280.526 399.245 280.481 399.052 280.388 398.883C280.295 398.713 280.165 398.582 280 398.488C279.839 398.391 279.65 398.342 279.434 398.342C279.222 398.342 279.033 398.391 278.867 398.488C278.702 398.582 278.573 398.715 278.479 398.889C278.386 399.059 278.339 399.254 278.339 399.474V399.576C278.339 399.801 278.39 400.003 278.492 400.181C278.598 400.355 278.744 400.49 278.931 400.588C279.118 400.685 279.332 400.734 279.574 400.734C279.773 400.734 279.953 400.7 280.114 400.632C280.28 400.565 280.424 400.463 280.547 400.327L280.884 400.721C280.732 400.9 280.541 401.035 280.312 401.129C280.087 401.222 279.835 401.269 279.555 401.269ZM278.95 397.368L279.815 396.541H280.592L279.523 397.368H278.95ZM283.419 401.269C283.075 401.269 282.767 401.194 282.496 401.046C282.229 400.897 282.019 400.694 281.866 400.435C281.713 400.176 281.637 399.879 281.637 399.544C281.637 399.209 281.713 398.912 281.866 398.654C282.019 398.395 282.229 398.193 282.496 398.049C282.767 397.901 283.075 397.827 283.419 397.827C283.724 397.827 283.995 397.888 284.233 398.011C284.475 398.13 284.661 398.308 284.793 398.545L284.328 398.845C284.218 398.679 284.082 398.558 283.921 398.482C283.764 398.401 283.595 398.361 283.412 398.361C283.192 398.361 282.994 398.41 282.82 398.507C282.647 398.605 282.509 398.743 282.407 398.921C282.305 399.095 282.254 399.303 282.254 399.544C282.254 399.786 282.305 399.996 282.407 400.174C282.509 400.352 282.647 400.49 282.82 400.588C282.994 400.685 283.192 400.734 283.412 400.734C283.595 400.734 283.764 400.696 283.921 400.62C284.082 400.539 284.218 400.416 284.328 400.251L284.793 400.543C284.661 400.777 284.475 400.957 284.233 401.084C283.995 401.207 283.724 401.269 283.419 401.269ZM286.978 401.269C286.639 401.269 286.338 401.194 286.075 401.046C285.812 400.897 285.604 400.694 285.451 400.435C285.299 400.172 285.222 399.875 285.222 399.544C285.222 399.209 285.299 398.912 285.451 398.654C285.604 398.395 285.812 398.193 286.075 398.049C286.338 397.901 286.639 397.827 286.978 397.827C287.313 397.827 287.612 397.901 287.875 398.049C288.143 398.193 288.35 398.395 288.499 398.654C288.652 398.908 288.728 399.205 288.728 399.544C288.728 399.879 288.652 400.176 288.499 400.435C288.35 400.694 288.143 400.897 287.875 401.046C287.612 401.194 287.313 401.269 286.978 401.269ZM286.978 400.734C287.195 400.734 287.388 400.685 287.557 400.588C287.731 400.49 287.867 400.352 287.964 400.174C288.062 399.992 288.111 399.782 288.111 399.544C288.111 399.303 288.062 399.095 287.964 398.921C287.867 398.743 287.731 398.605 287.557 398.507C287.388 398.41 287.195 398.361 286.978 398.361C286.762 398.361 286.569 398.41 286.399 398.507C286.23 398.605 286.094 398.743 285.992 398.921C285.89 399.095 285.839 399.303 285.839 399.544C285.839 399.782 285.89 399.992 285.992 400.174C286.094 400.352 286.23 400.49 286.399 400.588C286.569 400.685 286.762 400.734 286.978 400.734ZM289.573 401.23V397.858H290.158V398.768L290.063 398.526C290.173 398.306 290.343 398.134 290.572 398.011C290.801 397.888 291.068 397.827 291.373 397.827C291.649 397.827 291.891 397.88 292.099 397.986C292.311 398.092 292.476 398.253 292.595 398.469C292.714 398.685 292.773 398.959 292.773 399.29V401.23H292.162V399.36C292.162 399.033 292.082 398.787 291.92 398.622C291.763 398.456 291.541 398.374 291.252 398.374C291.036 398.374 290.847 398.416 290.686 398.501C290.525 398.586 290.4 398.711 290.311 398.876C290.226 399.042 290.183 399.247 290.183 399.494V401.23H289.573ZM293.903 401.23V397.858H294.489V398.768L294.393 398.526C294.504 398.306 294.673 398.134 294.902 398.011C295.131 397.888 295.399 397.827 295.704 397.827C295.98 397.827 296.221 397.88 296.429 397.986C296.641 398.092 296.807 398.253 296.926 398.469C297.044 398.685 297.104 398.959 297.104 399.29V401.23H296.493V399.36C296.493 399.033 296.412 398.787 296.251 398.622C296.094 398.456 295.871 398.374 295.583 398.374C295.367 398.374 295.178 398.416 295.017 398.501C294.856 398.586 294.73 398.711 294.641 398.876C294.557 399.042 294.514 399.247 294.514 399.494V401.23H293.903ZM299.736 401.269C299.375 401.269 299.057 401.194 298.781 401.046C298.51 400.897 298.298 400.694 298.145 400.435C297.997 400.176 297.922 399.879 297.922 399.544C297.922 399.209 297.994 398.912 298.139 398.654C298.287 398.395 298.489 398.193 298.743 398.049C299.002 397.901 299.292 397.827 299.615 397.827C299.941 397.827 300.23 397.899 300.48 398.043C300.73 398.187 300.925 398.391 301.065 398.654C301.21 398.912 301.282 399.216 301.282 399.563C301.282 399.589 301.28 399.619 301.275 399.653C301.275 399.687 301.273 399.718 301.269 399.748H298.4V399.309H300.951L300.703 399.462C300.707 399.245 300.662 399.052 300.569 398.883C300.476 398.713 300.346 398.582 300.181 398.488C300.02 398.391 299.831 398.342 299.615 398.342C299.403 398.342 299.214 398.391 299.048 398.488C298.883 398.582 298.754 398.715 298.66 398.889C298.567 399.059 298.52 399.254 298.52 399.474V399.576C298.52 399.801 298.571 400.003 298.673 400.181C298.779 400.355 298.925 400.49 299.112 400.588C299.299 400.685 299.513 400.734 299.755 400.734C299.954 400.734 300.134 400.7 300.296 400.632C300.461 400.565 300.605 400.463 300.728 400.327L301.065 400.721C300.913 400.9 300.722 401.035 300.493 401.129C300.268 401.222 300.016 401.269 299.736 401.269ZM301.547 401.23L302.997 399.347L302.991 399.659L301.61 397.858H302.291L303.347 399.245H303.086L304.143 397.858H304.811L303.411 399.672L303.417 399.347L304.881 401.23H304.187L303.074 399.754L303.322 399.793L302.228 401.23H301.547ZM305.547 401.23V397.858H306.158V401.23H305.547ZM305.853 397.209C305.734 397.209 305.634 397.171 305.554 397.095C305.477 397.018 305.439 396.925 305.439 396.815C305.439 396.7 305.477 396.605 305.554 396.529C305.634 396.452 305.734 396.414 305.853 396.414C305.971 396.414 306.069 396.452 306.145 396.529C306.226 396.601 306.266 396.692 306.266 396.802C306.266 396.917 306.228 397.014 306.152 397.095C306.075 397.171 305.976 397.209 305.853 397.209ZM308.769 401.269C308.429 401.269 308.128 401.194 307.865 401.046C307.602 400.897 307.394 400.694 307.242 400.435C307.089 400.172 307.013 399.875 307.013 399.544C307.013 399.209 307.089 398.912 307.242 398.654C307.394 398.395 307.602 398.193 307.865 398.049C308.128 397.901 308.429 397.827 308.769 397.827C309.104 397.827 309.403 397.901 309.666 398.049C309.933 398.193 310.141 398.395 310.289 398.654C310.442 398.908 310.518 399.205 310.518 399.544C310.518 399.879 310.442 400.176 310.289 400.435C310.141 400.694 309.933 400.897 309.666 401.046C309.403 401.194 309.104 401.269 308.769 401.269ZM308.769 400.734C308.985 400.734 309.178 400.685 309.348 400.588C309.521 400.49 309.657 400.352 309.755 400.174C309.852 399.992 309.901 399.782 309.901 399.544C309.901 399.303 309.852 399.095 309.755 398.921C309.657 398.743 309.521 398.605 309.348 398.507C309.178 398.41 308.985 398.361 308.769 398.361C308.552 398.361 308.359 398.41 308.19 398.507C308.02 398.605 307.884 398.743 307.782 398.921C307.681 399.095 307.63 399.303 307.63 399.544C307.63 399.782 307.681 399.992 307.782 400.174C307.884 400.352 308.02 400.49 308.19 400.588C308.359 400.685 308.552 400.734 308.769 400.734ZM311.363 401.23V397.858H311.948V398.768L311.853 398.526C311.963 398.306 312.133 398.134 312.362 398.011C312.591 397.888 312.858 397.827 313.164 397.827C313.439 397.827 313.681 397.88 313.889 397.986C314.101 398.092 314.266 398.253 314.385 398.469C314.504 398.685 314.563 398.959 314.563 399.29V401.23H313.952V399.36C313.952 399.033 313.872 398.787 313.711 398.622C313.554 398.456 313.331 398.374 313.043 398.374C312.826 398.374 312.638 398.416 312.476 398.501C312.315 398.586 312.19 398.711 312.101 398.876C312.016 399.042 311.974 399.247 311.974 399.494V401.23H311.363Z" fill="#B90000"/>
<path d="M272.886 380.729V376.275H276.029V376.829H273.522V380.175H276.118V380.729H272.886ZM273.465 378.738V378.197H275.755V378.738H273.465ZM277.059 380.729V376.008H277.67V380.729H277.059ZM278.836 380.729V377.357H279.447V380.729H278.836ZM279.141 376.708C279.023 376.708 278.923 376.67 278.842 376.593C278.766 376.517 278.728 376.424 278.728 376.313C278.728 376.199 278.766 376.103 278.842 376.027C278.923 375.951 279.023 375.913 279.141 375.913C279.26 375.913 279.358 375.951 279.434 376.027C279.515 376.099 279.555 376.19 279.555 376.301C279.555 376.415 279.517 376.513 279.44 376.593C279.364 376.67 279.264 376.708 279.141 376.708ZM282.114 380.767C281.754 380.767 281.436 380.693 281.16 380.544C280.889 380.396 280.677 380.192 280.524 379.934C280.375 379.675 280.301 379.378 280.301 379.043C280.301 378.708 280.373 378.411 280.518 378.152C280.666 377.893 280.867 377.692 281.122 377.548C281.381 377.399 281.671 377.325 281.994 377.325C282.32 377.325 282.609 377.397 282.859 377.541C283.109 377.686 283.304 377.889 283.444 378.152C283.588 378.411 283.661 378.714 283.661 379.062C283.661 379.087 283.658 379.117 283.654 379.151C283.654 379.185 283.652 379.217 283.648 379.247H280.778V378.808H283.33L283.082 378.96C283.086 378.744 283.041 378.551 282.948 378.381C282.855 378.212 282.725 378.08 282.56 377.987C282.399 377.889 282.21 377.84 281.994 377.84C281.782 377.84 281.593 377.889 281.427 377.987C281.262 378.08 281.133 378.214 281.039 378.388C280.946 378.557 280.899 378.752 280.899 378.973V379.075C280.899 379.3 280.95 379.501 281.052 379.679C281.158 379.853 281.304 379.989 281.491 380.086C281.678 380.184 281.892 380.233 282.134 380.233C282.333 380.233 282.513 380.199 282.674 380.131C282.84 380.063 282.984 379.961 283.107 379.826L283.444 380.22C283.292 380.398 283.101 380.534 282.872 380.627C282.647 380.721 282.394 380.767 282.114 380.767ZM286.306 380.729V376.275H288.304C288.818 376.275 289.212 376.379 289.488 376.587C289.763 376.791 289.901 377.071 289.901 377.427C289.901 377.669 289.846 377.872 289.736 378.038C289.63 378.203 289.486 378.33 289.303 378.419C289.121 378.508 288.924 378.553 288.712 378.553L288.826 378.362C289.081 378.362 289.305 378.407 289.5 378.496C289.696 378.585 289.85 378.716 289.965 378.89C290.079 379.06 290.137 379.272 290.137 379.526C290.137 379.908 289.992 380.205 289.704 380.417C289.42 380.625 288.996 380.729 288.432 380.729H286.306ZM286.943 380.214H288.406C288.758 380.214 289.028 380.154 289.214 380.035C289.401 379.917 289.494 379.73 289.494 379.476C289.494 379.217 289.401 379.028 289.214 378.909C289.028 378.791 288.758 378.731 288.406 378.731H286.885V378.216H288.247C288.569 378.216 288.82 378.156 288.998 378.038C289.176 377.919 289.265 377.741 289.265 377.503C289.265 377.266 289.176 377.088 288.998 376.969C288.82 376.85 288.569 376.791 288.247 376.791H286.943V380.214ZM292.477 380.767C292.138 380.767 291.837 380.693 291.574 380.544C291.311 380.396 291.103 380.192 290.95 379.934C290.797 379.671 290.721 379.374 290.721 379.043C290.721 378.708 290.797 378.411 290.95 378.152C291.103 377.893 291.311 377.692 291.574 377.548C291.837 377.399 292.138 377.325 292.477 377.325C292.812 377.325 293.111 377.399 293.374 377.548C293.641 377.692 293.849 377.893 293.998 378.152C294.15 378.407 294.227 378.704 294.227 379.043C294.227 379.378 294.15 379.675 293.998 379.934C293.849 380.192 293.641 380.396 293.374 380.544C293.111 380.693 292.812 380.767 292.477 380.767ZM292.477 380.233C292.693 380.233 292.886 380.184 293.056 380.086C293.23 379.989 293.366 379.851 293.463 379.673C293.561 379.49 293.61 379.28 293.61 379.043C293.61 378.801 293.561 378.593 293.463 378.419C293.366 378.241 293.23 378.103 293.056 378.006C292.886 377.908 292.693 377.86 292.477 377.86C292.261 377.86 292.068 377.908 291.898 378.006C291.728 378.103 291.593 378.241 291.491 378.419C291.389 378.593 291.338 378.801 291.338 379.043C291.338 379.28 291.389 379.49 291.491 379.673C291.593 379.851 291.728 379.989 291.898 380.086C292.068 380.184 292.261 380.233 292.477 380.233ZM295.071 380.729V377.357H295.682V380.729H295.071ZM295.377 376.708C295.258 376.708 295.158 376.67 295.078 376.593C295.001 376.517 294.963 376.424 294.963 376.313C294.963 376.199 295.001 376.103 295.078 376.027C295.158 375.951 295.258 375.913 295.377 375.913C295.496 375.913 295.593 375.951 295.67 376.027C295.75 376.099 295.79 376.19 295.79 376.301C295.79 376.415 295.752 376.513 295.676 376.593C295.6 376.67 295.5 376.708 295.377 376.708ZM296.849 380.729V377.357H297.434V378.267L297.338 378.025C297.449 377.804 297.618 377.633 297.847 377.51C298.076 377.387 298.344 377.325 298.649 377.325C298.925 377.325 299.167 377.378 299.374 377.484C299.587 377.59 299.752 377.751 299.871 377.968C299.989 378.184 300.049 378.458 300.049 378.788V380.729H299.438V378.858C299.438 378.532 299.357 378.286 299.196 378.12C299.039 377.955 298.817 377.872 298.528 377.872C298.312 377.872 298.123 377.915 297.962 377.999C297.801 378.084 297.676 378.209 297.587 378.375C297.502 378.54 297.459 378.746 297.459 378.992V380.729H296.849ZM302.681 380.767C302.32 380.767 302.002 380.693 301.726 380.544C301.455 380.396 301.243 380.192 301.09 379.934C300.942 379.675 300.867 379.378 300.867 379.043C300.867 378.708 300.94 378.411 301.084 378.152C301.232 377.893 301.434 377.692 301.688 377.548C301.947 377.399 302.238 377.325 302.56 377.325C302.887 377.325 303.175 377.397 303.425 377.541C303.675 377.686 303.871 377.889 304.011 378.152C304.155 378.411 304.227 378.714 304.227 379.062C304.227 379.087 304.225 379.117 304.221 379.151C304.221 379.185 304.218 379.217 304.214 379.247H301.345V378.808H303.896L303.648 378.96C303.652 378.744 303.608 378.551 303.514 378.381C303.421 378.212 303.292 378.08 303.126 377.987C302.965 377.889 302.776 377.84 302.56 377.84C302.348 377.84 302.159 377.889 301.994 377.987C301.828 378.08 301.699 378.214 301.606 378.388C301.512 378.557 301.466 378.752 301.466 378.973V379.075C301.466 379.3 301.516 379.501 301.618 379.679C301.724 379.853 301.871 379.989 302.057 380.086C302.244 380.184 302.458 380.233 302.7 380.233C302.899 380.233 303.079 380.199 303.241 380.131C303.406 380.063 303.55 379.961 303.673 379.826L304.011 380.22C303.858 380.398 303.667 380.534 303.438 380.627C303.213 380.721 302.961 380.767 302.681 380.767ZM306.233 380.767C305.894 380.767 305.631 380.676 305.444 380.494C305.257 380.311 305.164 380.05 305.164 379.711V376.619H305.775V379.686C305.775 379.868 305.819 380.008 305.909 380.105C306.002 380.203 306.133 380.252 306.303 380.252C306.494 380.252 306.653 380.199 306.78 380.093L306.971 380.532C306.878 380.612 306.765 380.672 306.634 380.71C306.507 380.748 306.373 380.767 306.233 380.767ZM304.591 377.86V377.357H306.742V377.86H304.591Z" fill="white"/>
<path d="M274.33 149.023L277.131 142.838H278.006L280.816 149.023H279.888L277.387 143.333H277.741L275.24 149.023H274.33ZM275.523 147.477L275.761 146.77H279.243L279.499 147.477H275.523ZM283.613 149.076C283.136 149.076 282.709 148.973 282.332 148.767C281.96 148.561 281.669 148.278 281.457 147.919C281.245 147.559 281.139 147.147 281.139 146.682C281.139 146.216 281.245 145.804 281.457 145.445C281.669 145.085 281.96 144.805 282.332 144.605C282.709 144.399 283.136 144.296 283.613 144.296C284.037 144.296 284.414 144.381 284.744 144.552C285.08 144.717 285.339 144.964 285.522 145.294L284.877 145.71C284.723 145.48 284.535 145.312 284.311 145.206C284.093 145.094 283.857 145.038 283.604 145.038C283.298 145.038 283.024 145.106 282.782 145.241C282.541 145.377 282.349 145.568 282.208 145.816C282.067 146.057 281.996 146.346 281.996 146.682C281.996 147.017 282.067 147.309 282.208 147.557C282.349 147.804 282.541 147.995 282.782 148.131C283.024 148.266 283.298 148.334 283.604 148.334C283.857 148.334 284.093 148.281 284.311 148.175C284.535 148.063 284.723 147.892 284.877 147.663L285.522 148.069C285.339 148.393 285.08 148.643 284.744 148.82C284.414 148.991 284.037 149.076 283.613 149.076ZM288.592 149.076C288.115 149.076 287.688 148.973 287.311 148.767C286.94 148.561 286.648 148.278 286.436 147.919C286.224 147.559 286.118 147.147 286.118 146.682C286.118 146.216 286.224 145.804 286.436 145.445C286.648 145.085 286.94 144.805 287.311 144.605C287.688 144.399 288.115 144.296 288.592 144.296C289.016 144.296 289.393 144.381 289.723 144.552C290.059 144.717 290.318 144.964 290.501 145.294L289.856 145.71C289.703 145.48 289.514 145.312 289.29 145.206C289.072 145.094 288.837 145.038 288.583 145.038C288.277 145.038 288.003 145.106 287.762 145.241C287.52 145.377 287.329 145.568 287.187 145.816C287.046 146.057 286.975 146.346 286.975 146.682C286.975 147.017 287.046 147.309 287.187 147.557C287.329 147.804 287.52 147.995 287.762 148.131C288.003 148.266 288.277 148.334 288.583 148.334C288.837 148.334 289.072 148.281 289.29 148.175C289.514 148.063 289.703 147.892 289.856 147.663L290.501 148.069C290.318 148.393 290.059 148.643 289.723 148.82C289.393 148.991 289.016 149.076 288.592 149.076ZM293.616 149.076C293.115 149.076 292.673 148.973 292.29 148.767C291.913 148.561 291.619 148.278 291.407 147.919C291.2 147.559 291.097 147.147 291.097 146.682C291.097 146.216 291.197 145.804 291.398 145.445C291.604 145.085 291.884 144.805 292.237 144.605C292.597 144.399 293 144.296 293.448 144.296C293.902 144.296 294.302 144.396 294.65 144.596C294.997 144.796 295.268 145.079 295.463 145.445C295.663 145.804 295.763 146.225 295.763 146.708C295.763 146.744 295.76 146.785 295.754 146.832C295.754 146.879 295.751 146.923 295.745 146.964H291.76V146.355H295.304L294.959 146.567C294.965 146.266 294.903 145.998 294.773 145.763C294.644 145.527 294.464 145.344 294.234 145.215C294.011 145.079 293.748 145.012 293.448 145.012C293.153 145.012 292.891 145.079 292.661 145.215C292.432 145.344 292.252 145.53 292.122 145.771C291.993 146.007 291.928 146.278 291.928 146.584V146.726C291.928 147.038 291.999 147.318 292.14 147.565C292.287 147.807 292.491 147.995 292.75 148.131C293.009 148.266 293.307 148.334 293.642 148.334C293.919 148.334 294.17 148.287 294.393 148.193C294.623 148.099 294.823 147.957 294.994 147.769L295.463 148.316C295.251 148.564 294.986 148.752 294.667 148.882C294.355 149.012 294.005 149.076 293.616 149.076ZM298.912 149.076C298.511 149.076 298.158 149.003 297.851 148.856C297.551 148.708 297.315 148.484 297.144 148.184C296.979 147.878 296.897 147.495 296.897 147.035V144.34H297.745V146.938C297.745 147.397 297.854 147.742 298.072 147.972C298.296 148.202 298.608 148.316 299.009 148.316C299.304 148.316 299.56 148.258 299.778 148.14C299.996 148.016 300.164 147.839 300.281 147.61C300.399 147.374 300.458 147.091 300.458 146.761V144.34H301.307V149.023H300.502V147.76L300.635 148.096C300.482 148.408 300.252 148.649 299.946 148.82C299.639 148.991 299.295 149.076 298.912 149.076ZM302.922 149.023V144.34H303.77V149.023H302.922ZM303.346 143.439C303.181 143.439 303.042 143.386 302.93 143.28C302.824 143.173 302.771 143.044 302.771 142.891C302.771 142.732 302.824 142.599 302.93 142.493C303.042 142.387 303.181 142.334 303.346 142.334C303.511 142.334 303.646 142.387 303.752 142.493C303.864 142.593 303.92 142.72 303.92 142.873C303.92 143.032 303.867 143.168 303.761 143.28C303.655 143.386 303.517 143.439 303.346 143.439ZM305.39 149.023V142.467H306.238V149.023H305.39Z" fill="white" fill-opacity="0.64"/>
<rect x="255.251" y="138.963" width="12.3715" height="12.3715" fill="#D9D9D9"/>
<rect x="255.251" y="171.129" width="12.3715" height="12.3715" fill="#D9D9D9"/>
<path d="M274.33 181.189L277.131 175.004H278.006L280.816 181.189H279.888L277.387 175.499H277.741L275.24 181.189H274.33ZM275.523 179.643L275.761 178.936H279.243L279.499 179.643H275.523ZM284.098 181.242C283.697 181.242 283.335 181.154 283.011 180.977C282.693 180.795 282.44 180.527 282.251 180.173C282.068 179.82 281.977 179.378 281.977 178.848C281.977 178.317 282.071 177.876 282.26 177.522C282.454 177.169 282.711 176.904 283.029 176.727C283.353 176.55 283.709 176.462 284.098 176.462C284.557 176.462 284.964 176.562 285.317 176.762C285.671 176.963 285.951 177.242 286.157 177.602C286.363 177.955 286.466 178.371 286.466 178.848C286.466 179.325 286.363 179.743 286.157 180.103C285.951 180.462 285.671 180.742 285.317 180.942C284.964 181.142 284.557 181.242 284.098 181.242ZM281.615 181.189V174.633H282.463V177.752L282.375 178.839L282.428 179.926V181.189H281.615ZM284.027 180.5C284.328 180.5 284.596 180.432 284.831 180.297C285.073 180.161 285.261 179.97 285.397 179.723C285.538 179.469 285.609 179.178 285.609 178.848C285.609 178.512 285.538 178.223 285.397 177.982C285.261 177.734 285.073 177.543 284.831 177.407C284.596 177.272 284.328 177.204 284.027 177.204C283.733 177.204 283.465 177.272 283.223 177.407C282.987 177.543 282.799 177.734 282.658 177.982C282.522 178.223 282.454 178.512 282.454 178.848C282.454 179.178 282.522 179.469 282.658 179.723C282.799 179.97 282.987 180.161 283.223 180.297C283.465 180.432 283.733 180.5 284.027 180.5ZM288.982 181.242C288.593 181.242 288.222 181.189 287.868 181.083C287.52 180.977 287.247 180.848 287.046 180.695L287.4 180.023C287.6 180.158 287.847 180.273 288.142 180.368C288.437 180.462 288.737 180.509 289.043 180.509C289.438 180.509 289.721 180.453 289.892 180.341C290.068 180.229 290.157 180.073 290.157 179.873C290.157 179.725 290.104 179.611 289.998 179.528C289.892 179.446 289.75 179.384 289.574 179.343C289.403 179.301 289.211 179.266 288.999 179.237C288.787 179.201 288.575 179.16 288.363 179.113C288.151 179.06 287.956 178.989 287.78 178.901C287.603 178.806 287.462 178.68 287.356 178.521C287.25 178.356 287.196 178.138 287.196 177.867C287.196 177.584 287.276 177.337 287.435 177.125C287.594 176.912 287.818 176.75 288.107 176.638C288.401 176.521 288.749 176.462 289.149 176.462C289.456 176.462 289.765 176.5 290.077 176.577C290.395 176.647 290.655 176.75 290.855 176.886L290.493 177.558C290.281 177.416 290.06 177.319 289.83 177.266C289.6 177.213 289.37 177.186 289.141 177.186C288.769 177.186 288.493 177.248 288.31 177.372C288.127 177.49 288.036 177.643 288.036 177.831C288.036 177.991 288.089 178.114 288.195 178.203C288.307 178.285 288.448 178.35 288.619 178.397C288.796 178.444 288.99 178.485 289.202 178.521C289.415 178.55 289.627 178.591 289.839 178.644C290.051 178.692 290.242 178.759 290.413 178.848C290.59 178.936 290.731 179.06 290.837 179.219C290.949 179.378 291.005 179.59 291.005 179.855C291.005 180.138 290.923 180.382 290.758 180.589C290.593 180.795 290.36 180.957 290.06 181.075C289.759 181.187 289.4 181.242 288.982 181.242ZM294.107 181.242C293.629 181.242 293.202 181.139 292.825 180.933C292.454 180.727 292.163 180.444 291.95 180.085C291.738 179.725 291.632 179.313 291.632 178.848C291.632 178.382 291.738 177.97 291.95 177.611C292.163 177.251 292.454 176.971 292.825 176.771C293.202 176.565 293.629 176.462 294.107 176.462C294.531 176.462 294.908 176.547 295.238 176.718C295.574 176.883 295.833 177.13 296.015 177.46L295.37 177.876C295.217 177.646 295.029 177.478 294.805 177.372C294.587 177.26 294.351 177.204 294.098 177.204C293.791 177.204 293.518 177.272 293.276 177.407C293.034 177.543 292.843 177.734 292.702 177.982C292.56 178.223 292.49 178.512 292.49 178.848C292.49 179.183 292.56 179.475 292.702 179.723C292.843 179.97 293.034 180.161 293.276 180.297C293.518 180.432 293.791 180.5 294.098 180.5C294.351 180.5 294.587 180.447 294.805 180.341C295.029 180.229 295.217 180.058 295.37 179.829L296.015 180.235C295.833 180.559 295.574 180.809 295.238 180.986C294.908 181.157 294.531 181.242 294.107 181.242ZM299.13 181.242C298.629 181.242 298.188 181.139 297.805 180.933C297.428 180.727 297.133 180.444 296.921 180.085C296.715 179.725 296.612 179.313 296.612 178.848C296.612 178.382 296.712 177.97 296.912 177.611C297.118 177.251 297.398 176.971 297.752 176.771C298.111 176.565 298.515 176.462 298.962 176.462C299.416 176.462 299.817 176.562 300.164 176.762C300.512 176.963 300.783 177.245 300.977 177.611C301.177 177.97 301.278 178.391 301.278 178.874C301.278 178.91 301.275 178.951 301.269 178.998C301.269 179.045 301.266 179.089 301.26 179.13H297.274V178.521H300.818L300.473 178.733C300.479 178.432 300.417 178.164 300.288 177.929C300.158 177.693 299.979 177.51 299.749 177.381C299.525 177.245 299.263 177.178 298.962 177.178C298.668 177.178 298.406 177.245 298.176 177.381C297.946 177.51 297.766 177.696 297.637 177.938C297.507 178.173 297.442 178.444 297.442 178.75V178.892C297.442 179.204 297.513 179.484 297.654 179.731C297.802 179.973 298.005 180.161 298.264 180.297C298.523 180.432 298.821 180.5 299.157 180.5C299.434 180.5 299.684 180.453 299.908 180.359C300.138 180.265 300.338 180.123 300.509 179.935L300.977 180.483C300.765 180.73 300.5 180.918 300.182 181.048C299.87 181.178 299.519 181.242 299.13 181.242ZM302.456 181.189V176.506H303.268V177.77L303.136 177.434C303.289 177.127 303.525 176.889 303.843 176.718C304.161 176.547 304.532 176.462 304.956 176.462C305.339 176.462 305.675 176.535 305.964 176.683C306.258 176.83 306.488 177.054 306.653 177.354C306.818 177.655 306.9 178.035 306.9 178.494V181.189H306.052V178.591C306.052 178.138 305.94 177.796 305.716 177.566C305.498 177.337 305.189 177.222 304.788 177.222C304.488 177.222 304.226 177.281 304.002 177.398C303.778 177.516 303.604 177.69 303.481 177.92C303.363 178.15 303.304 178.435 303.304 178.777V181.189H302.456ZM310.512 181.242C310.035 181.242 309.607 181.139 309.23 180.933C308.859 180.727 308.568 180.444 308.356 180.085C308.143 179.725 308.037 179.313 308.037 178.848C308.037 178.382 308.143 177.97 308.356 177.611C308.568 177.251 308.859 176.971 309.23 176.771C309.607 176.565 310.035 176.462 310.512 176.462C310.936 176.462 311.313 176.547 311.643 176.718C311.979 176.883 312.238 177.13 312.42 177.46L311.775 177.876C311.622 177.646 311.434 177.478 311.21 177.372C310.992 177.26 310.756 177.204 310.503 177.204C310.197 177.204 309.923 177.272 309.681 177.407C309.44 177.543 309.248 177.734 309.107 177.982C308.965 178.223 308.895 178.512 308.895 178.848C308.895 179.183 308.965 179.475 309.107 179.723C309.248 179.97 309.44 180.161 309.681 180.297C309.923 180.432 310.197 180.5 310.503 180.5C310.756 180.5 310.992 180.447 311.21 180.341C311.434 180.229 311.622 180.058 311.775 179.829L312.42 180.235C312.238 180.559 311.979 180.809 311.643 180.986C311.313 181.157 310.936 181.242 310.512 181.242ZM315.535 181.242C315.034 181.242 314.593 181.139 314.21 180.933C313.833 180.727 313.538 180.444 313.326 180.085C313.12 179.725 313.017 179.313 313.017 178.848C313.017 178.382 313.117 177.97 313.317 177.611C313.523 177.251 313.803 176.971 314.157 176.771C314.516 176.565 314.92 176.462 315.367 176.462C315.821 176.462 316.222 176.562 316.569 176.762C316.917 176.963 317.188 177.245 317.382 177.611C317.582 177.97 317.683 178.391 317.683 178.874C317.683 178.91 317.68 178.951 317.674 178.998C317.674 179.045 317.671 179.089 317.665 179.13H313.679V178.521H317.223L316.878 178.733C316.884 178.432 316.822 178.164 316.693 177.929C316.563 177.693 316.384 177.51 316.154 177.381C315.93 177.245 315.668 177.178 315.367 177.178C315.073 177.178 314.811 177.245 314.581 177.381C314.351 177.51 314.171 177.696 314.042 177.938C313.912 178.173 313.847 178.444 313.847 178.75V178.892C313.847 179.204 313.918 179.484 314.059 179.731C314.207 179.973 314.41 180.161 314.669 180.297C314.928 180.432 315.226 180.5 315.562 180.5C315.839 180.5 316.089 180.453 316.313 180.359C316.543 180.265 316.743 180.123 316.914 179.935L317.382 180.483C317.17 180.73 316.905 180.918 316.587 181.048C316.275 181.178 315.924 181.242 315.535 181.242ZM320.204 181.242C319.815 181.242 319.444 181.189 319.09 181.083C318.743 180.977 318.469 180.848 318.268 180.695L318.622 180.023C318.822 180.158 319.07 180.273 319.364 180.368C319.659 180.462 319.959 180.509 320.266 180.509C320.66 180.509 320.943 180.453 321.114 180.341C321.291 180.229 321.379 180.073 321.379 179.873C321.379 179.725 321.326 179.611 321.22 179.528C321.114 179.446 320.973 179.384 320.796 179.343C320.625 179.301 320.434 179.266 320.221 179.237C320.009 179.201 319.797 179.16 319.585 179.113C319.373 179.06 319.179 178.989 319.002 178.901C318.825 178.806 318.684 178.68 318.578 178.521C318.472 178.356 318.419 178.138 318.419 177.867C318.419 177.584 318.498 177.337 318.657 177.125C318.816 176.912 319.04 176.75 319.329 176.638C319.623 176.521 319.971 176.462 320.372 176.462C320.678 176.462 320.987 176.5 321.3 176.577C321.618 176.647 321.877 176.75 322.077 176.886L321.715 177.558C321.503 177.416 321.282 177.319 321.052 177.266C320.822 177.213 320.593 177.186 320.363 177.186C319.992 177.186 319.715 177.248 319.532 177.372C319.35 177.49 319.258 177.643 319.258 177.831C319.258 177.991 319.311 178.114 319.417 178.203C319.529 178.285 319.671 178.35 319.841 178.397C320.018 178.444 320.213 178.485 320.425 178.521C320.637 178.55 320.849 178.591 321.061 178.644C321.273 178.692 321.464 178.759 321.635 178.848C321.812 178.936 321.953 179.06 322.059 179.219C322.171 179.378 322.227 179.59 322.227 179.855C322.227 180.138 322.145 180.382 321.98 180.589C321.815 180.795 321.582 180.957 321.282 181.075C320.981 181.187 320.622 181.242 320.204 181.242Z" fill="white" fill-opacity="0.64"/>
<rect x="255.251" y="203.295" width="12.3715" height="12.3715" fill="#D9D9D9"/>
<path d="M275.266 213.355V207.17H279.632V207.939H276.15V213.355H275.266ZM276.062 210.855V210.095H279.252V210.855H276.062ZM283.487 213.355V212.366L283.442 212.18V210.492C283.442 210.133 283.336 209.856 283.124 209.662C282.918 209.461 282.606 209.361 282.188 209.361C281.911 209.361 281.64 209.408 281.375 209.503C281.109 209.591 280.886 209.712 280.703 209.865L280.349 209.229C280.591 209.034 280.88 208.887 281.215 208.787C281.557 208.681 281.914 208.628 282.285 208.628C282.927 208.628 283.422 208.784 283.769 209.096C284.117 209.408 284.291 209.886 284.291 210.528V213.355H283.487ZM281.949 213.408C281.601 213.408 281.295 213.35 281.03 213.232C280.771 213.114 280.57 212.952 280.429 212.746C280.288 212.534 280.217 212.295 280.217 212.03C280.217 211.777 280.276 211.547 280.394 211.341C280.517 211.134 280.715 210.97 280.986 210.846C281.263 210.722 281.634 210.66 282.099 210.66H283.584V211.27H282.135C281.71 211.27 281.425 211.341 281.277 211.482C281.13 211.623 281.056 211.794 281.056 211.995C281.056 212.224 281.148 212.41 281.33 212.551C281.513 212.687 281.766 212.755 282.09 212.755C282.408 212.755 282.685 212.684 282.921 212.542C283.163 212.401 283.336 212.195 283.442 211.924L283.61 212.507C283.498 212.784 283.301 213.005 283.018 213.17C282.735 213.329 282.379 213.408 281.949 213.408ZM285.861 213.355V208.672H286.674V209.918L286.541 209.6C286.688 209.293 286.915 209.055 287.221 208.884C287.528 208.713 287.884 208.628 288.291 208.628C288.738 208.628 289.124 208.74 289.448 208.964C289.772 209.182 289.984 209.514 290.085 209.962L289.74 209.821C289.881 209.461 290.129 209.173 290.482 208.955C290.836 208.737 291.248 208.628 291.719 208.628C292.096 208.628 292.429 208.701 292.718 208.849C293.007 208.996 293.231 209.22 293.39 209.52C293.555 209.821 293.637 210.201 293.637 210.66V213.355H292.789V210.757C292.789 210.304 292.683 209.962 292.471 209.732C292.258 209.503 291.961 209.388 291.578 209.388C291.295 209.388 291.048 209.447 290.836 209.564C290.624 209.682 290.459 209.856 290.341 210.086C290.229 210.316 290.173 210.601 290.173 210.943V213.355H289.325V210.757C289.325 210.304 289.219 209.962 289.007 209.732C288.8 209.503 288.503 209.388 288.114 209.388C287.837 209.388 287.593 209.447 287.381 209.564C287.168 209.682 287.004 209.856 286.886 210.086C286.768 210.316 286.709 210.601 286.709 210.943V213.355H285.861ZM295.198 213.355V208.672H296.046V213.355H295.198ZM295.622 207.771C295.457 207.771 295.319 207.718 295.207 207.612C295.101 207.506 295.048 207.376 295.048 207.223C295.048 207.064 295.101 206.931 295.207 206.825C295.319 206.719 295.457 206.666 295.622 206.666C295.787 206.666 295.923 206.719 296.029 206.825C296.141 206.925 296.196 207.052 296.196 207.205C296.196 207.364 296.143 207.5 296.037 207.612C295.931 207.718 295.793 207.771 295.622 207.771ZM297.666 213.355V206.799H298.514V213.355H297.666ZM300.134 213.355V206.799H300.982V213.355H300.134ZM304.688 213.408C304.187 213.408 303.745 213.305 303.362 213.099C302.985 212.893 302.691 212.61 302.478 212.251C302.272 211.892 302.169 211.479 302.169 211.014C302.169 210.548 302.269 210.136 302.47 209.777C302.676 209.417 302.956 209.137 303.309 208.937C303.669 208.731 304.072 208.628 304.52 208.628C304.973 208.628 305.374 208.728 305.722 208.928C306.069 209.129 306.34 209.411 306.535 209.777C306.735 210.136 306.835 210.557 306.835 211.04C306.835 211.076 306.832 211.117 306.826 211.164C306.826 211.211 306.823 211.255 306.817 211.296H302.832V210.687H306.376L306.031 210.899C306.037 210.598 305.975 210.33 305.845 210.095C305.716 209.859 305.536 209.676 305.306 209.547C305.082 209.411 304.82 209.344 304.52 209.344C304.225 209.344 303.963 209.411 303.733 209.547C303.504 209.676 303.324 209.862 303.194 210.104C303.065 210.339 303 210.61 303 210.917V211.058C303 211.37 303.071 211.65 303.212 211.897C303.359 212.139 303.562 212.327 303.822 212.463C304.081 212.598 304.378 212.666 304.714 212.666C304.991 212.666 305.241 212.619 305.465 212.525C305.695 212.431 305.895 212.289 306.066 212.101L306.535 212.649C306.323 212.896 306.057 213.084 305.739 213.214C305.427 213.344 305.077 213.408 304.688 213.408Z" fill="white" fill-opacity="0.64"/>
<path d="M289.728 92.867C289.163 92.867 288.636 92.7751 288.148 92.5913C287.668 92.4004 287.247 92.1353 286.887 91.796C286.533 91.4496 286.257 91.0431 286.059 90.5765C285.861 90.1099 285.762 89.6009 285.762 89.0495C285.762 88.4981 285.861 87.9891 286.059 87.5225C286.257 87.0559 286.537 86.653 286.897 86.3137C287.258 85.9672 287.678 85.7021 288.159 85.5183C288.64 85.3275 289.166 85.232 289.739 85.232C290.347 85.232 290.902 85.3381 291.404 85.5502C291.906 85.7552 292.33 86.0627 292.676 86.4727L291.786 87.3104C291.517 87.0206 291.217 86.805 290.884 86.6636C290.552 86.5151 290.191 86.4409 289.803 86.4409C289.414 86.4409 289.057 86.5045 288.732 86.6318C288.414 86.759 288.134 86.9393 287.894 87.1726C287.661 87.4059 287.477 87.6816 287.343 87.9997C287.215 88.3178 287.152 88.6678 287.152 89.0495C287.152 89.4313 287.215 89.7812 287.343 90.0993C287.477 90.4175 287.661 90.6932 287.894 90.9265C288.134 91.1598 288.414 91.34 288.732 91.4673C289.057 91.5945 289.414 91.6582 289.803 91.6582C290.191 91.6582 290.552 91.5875 290.884 91.4461C291.217 91.2976 291.517 91.0749 291.786 90.778L292.676 91.6263C292.33 92.0293 291.906 92.3368 291.404 92.5489C290.902 92.761 290.343 92.867 289.728 92.867ZM293.777 92.761V84.8927H295.102V92.761H293.777ZM300.331 92.761V91.6157L300.257 91.3718V89.3677C300.257 88.9788 300.14 88.6784 299.907 88.4663C299.673 88.2471 299.32 88.1376 298.846 88.1376C298.528 88.1376 298.214 88.1871 297.903 88.286C297.599 88.385 297.34 88.5229 297.128 88.6996L296.609 87.7346C296.913 87.5013 297.273 87.3281 297.69 87.215C298.115 87.0948 298.553 87.0347 299.005 87.0347C299.825 87.0347 300.458 87.2327 300.903 87.6286C301.356 88.0174 301.582 88.6218 301.582 89.4419V92.761H300.331ZM298.549 92.8352C298.125 92.8352 297.754 92.7645 297.436 92.6231C297.118 92.4747 296.87 92.2732 296.694 92.0187C296.524 91.7571 296.439 91.4637 296.439 91.1385C296.439 90.8204 296.513 90.5341 296.662 90.2796C296.817 90.0251 297.068 89.8236 297.415 89.6752C297.761 89.5267 298.221 89.4525 298.793 89.4525H300.437V90.3326H298.889C298.436 90.3326 298.132 90.4069 297.977 90.5553C297.821 90.6967 297.743 90.8734 297.743 91.0855C297.743 91.3259 297.839 91.5168 298.03 91.6582C298.221 91.7995 298.486 91.8702 298.825 91.8702C299.15 91.8702 299.44 91.796 299.695 91.6475C299.956 91.4991 300.144 91.2799 300.257 90.9901L300.479 91.7854C300.352 92.1177 300.122 92.3757 299.79 92.5595C299.465 92.7433 299.051 92.8352 298.549 92.8352ZM305.033 92.8352C304.559 92.8352 304.103 92.7751 303.665 92.6549C303.234 92.5277 302.891 92.3757 302.636 92.199L303.145 91.1916C303.4 91.3542 303.704 91.4885 304.057 91.5945C304.411 91.7006 304.764 91.7536 305.118 91.7536C305.535 91.7536 305.835 91.697 306.019 91.5839C306.21 91.4708 306.305 91.3188 306.305 91.1279C306.305 90.9724 306.242 90.8558 306.115 90.778C305.987 90.6932 305.821 90.6295 305.616 90.5871C305.411 90.5447 305.181 90.5058 304.927 90.4705C304.68 90.4351 304.429 90.3892 304.174 90.3326C303.927 90.269 303.7 90.1806 303.495 90.0675C303.29 89.9473 303.124 89.7883 302.997 89.5903C302.87 89.3924 302.806 89.1308 302.806 88.8056C302.806 88.4451 302.909 88.134 303.114 87.8725C303.319 87.6038 303.605 87.3988 303.973 87.2574C304.347 87.109 304.789 87.0347 305.298 87.0347C305.68 87.0347 306.065 87.0772 306.454 87.162C306.843 87.2468 307.164 87.367 307.419 87.5225L306.91 88.5299C306.641 88.3673 306.369 88.2577 306.093 88.2012C305.825 88.1376 305.556 88.1058 305.287 88.1058C304.885 88.1058 304.584 88.1658 304.386 88.286C304.195 88.4062 304.1 88.5582 304.1 88.742C304.1 88.9117 304.163 89.0389 304.291 89.1238C304.418 89.2086 304.584 89.2757 304.789 89.3252C304.994 89.3747 305.22 89.4171 305.468 89.4525C305.722 89.4808 305.973 89.5267 306.221 89.5903C306.468 89.654 306.694 89.7423 306.899 89.8554C307.111 89.9615 307.281 90.1135 307.408 90.3114C307.536 90.5094 307.599 90.7674 307.599 91.0855C307.599 91.439 307.493 91.7465 307.281 92.0081C307.076 92.2697 306.783 92.4747 306.401 92.6231C306.019 92.7645 305.563 92.8352 305.033 92.8352ZM310.49 92.8352C310.017 92.8352 309.561 92.7751 309.122 92.6549C308.691 92.5277 308.348 92.3757 308.094 92.199L308.603 91.1916C308.857 91.3542 309.161 91.4885 309.515 91.5945C309.868 91.7006 310.222 91.7536 310.575 91.7536C310.992 91.7536 311.293 91.697 311.477 91.5839C311.667 91.4708 311.763 91.3188 311.763 91.1279C311.763 90.9724 311.699 90.8558 311.572 90.778C311.445 90.6932 311.279 90.6295 311.074 90.5871C310.869 90.5447 310.639 90.5058 310.384 90.4705C310.137 90.4351 309.886 90.3892 309.631 90.3326C309.384 90.269 309.158 90.1806 308.953 90.0675C308.748 89.9473 308.582 89.7883 308.454 89.5903C308.327 89.3924 308.264 89.1308 308.264 88.8056C308.264 88.4451 308.366 88.134 308.571 87.8725C308.776 87.6038 309.062 87.3988 309.43 87.2574C309.805 87.109 310.247 87.0347 310.756 87.0347C311.137 87.0347 311.523 87.0772 311.911 87.162C312.3 87.2468 312.622 87.367 312.876 87.5225L312.367 88.5299C312.099 88.3673 311.827 88.2577 311.551 88.2012C311.282 88.1376 311.014 88.1058 310.745 88.1058C310.342 88.1058 310.041 88.1658 309.844 88.286C309.653 88.4062 309.557 88.5582 309.557 88.742C309.557 88.9117 309.621 89.0389 309.748 89.1238C309.875 89.2086 310.041 89.2757 310.247 89.3252C310.452 89.3747 310.678 89.4171 310.925 89.4525C311.18 89.4808 311.431 89.5267 311.678 89.5903C311.926 89.654 312.152 89.7423 312.357 89.8554C312.569 89.9615 312.738 90.1135 312.866 90.3114C312.993 90.5094 313.057 90.7674 313.057 91.0855C313.057 91.439 312.951 91.7465 312.738 92.0081C312.533 92.2697 312.24 92.4747 311.858 92.6231C311.477 92.7645 311.021 92.8352 310.49 92.8352ZM314.665 94.8924C314.389 94.8924 314.113 94.8465 313.838 94.7546C313.562 94.6627 313.332 94.5354 313.148 94.3728L313.679 93.3972C313.813 93.5174 313.965 93.6129 314.135 93.6835C314.304 93.7542 314.477 93.7896 314.654 93.7896C314.894 93.7896 315.089 93.7295 315.237 93.6093C315.386 93.4891 315.524 93.2877 315.651 93.0049L315.98 92.2626L316.086 92.1035L318.228 87.0984H319.5L316.849 93.217C316.672 93.6411 316.474 93.9769 316.255 94.2244C316.043 94.4718 315.803 94.645 315.534 94.744C315.273 94.8429 314.983 94.8924 314.665 94.8924ZM315.831 92.9625L313.276 87.0984H314.654L316.733 91.9869L315.831 92.9625ZM320.329 92.761V87.0984H321.591V88.6254L321.368 88.1588C321.566 87.7982 321.852 87.5225 322.227 87.3317C322.609 87.1337 323.047 87.0347 323.542 87.0347C323.994 87.0347 324.397 87.1231 324.751 87.2998C325.111 87.4766 325.394 87.7487 325.599 88.1164C325.804 88.4769 325.906 88.9435 325.906 89.5161V92.761H324.581V89.6858C324.581 89.1838 324.461 88.8092 324.22 88.5617C323.987 88.3143 323.658 88.1906 323.234 88.1906C322.923 88.1906 322.647 88.2542 322.407 88.3815C322.167 88.5087 321.979 88.6996 321.845 88.9541C321.718 89.2015 321.654 89.5161 321.654 89.8979V92.761H320.329Z" fill="white"/>
<g filter="url(#filter1_d_126_374)">
<rect x="255.251" y="74.2776" width="23.2703" height="23.2703" rx="1.86162" fill="#28323F"/>
<path d="M267.035 78.1873L275.096 92.1494L267.035 84.1444L258.974 92.1494L267.035 78.1873Z" fill="white"/>
<circle cx="267.128" cy="85.7267" r="2.04778" fill="white" stroke="#28323F" stroke-width="0.558486"/>
<path d="M263.125 92.1493C263.125 91.0631 263.547 90.0213 264.298 89.2533C265.048 88.4852 266.066 88.0537 267.128 88.0537C268.189 88.0537 269.208 88.4852 269.958 89.2533C270.709 90.0213 271.13 91.0631 271.13 92.1493L267.128 92.1493L263.125 92.1493Z" fill="white"/>
</g>
<path d="M255.251 366.702L331.955 367.129" stroke="#F6F6F6" stroke-opacity="0.63" stroke-width="0.353472"/>
<rect x="255.251" y="373.315" width="10.6042" height="10.6042" rx="1.06042" fill="#D9D9D9"/>
<rect x="255.251" y="393.817" width="10.6042" height="10.6042" rx="1.06042" fill="#D9D9D9"/>
</g>
<defs>
<filter id="filter0_d_126_374" x="241.465" y="43.8792" width="104.274" height="369.025" filterUnits="userSpaceOnUse" color-interpolation-filters="sRGB">
<feFlood flood-opacity="0" result="BackgroundImageFix"/>
<feColorMatrix in="SourceAlpha" type="matrix" values="0 0 0 0 0 0 0 0 0 0 0 0 0 0 0 0 0 0 127 0" result="hardAlpha"/>
<feMorphology radius="1.76736" operator="dilate" in="SourceAlpha" result="effect1_dropShadow_126_374"/>
<feOffset dy="1.41389"/>
<feGaussianBlur stdDeviation="0.883681"/>
<feComposite in2="hardAlpha" operator="out"/>
<feColorMatrix type="matrix" values="0 0 0 0 0 0 0 0 0 0 0 0 0 0 0 0 0 0 0.25 0"/>
<feBlend mode="normal" in2="BackgroundImageFix" result="effect1_dropShadow_126_374"/>
<feBlend mode="normal" in="SourceGraphic" in2="effect1_dropShadow_126_374" result="shape"/>
</filter>
<filter id="filter1_d_126_374" x="248.181" y="67.2081" width="37.4092" height="37.4092" filterUnits="userSpaceOnUse" color-interpolation-filters="sRGB">
<feFlood flood-opacity="0" result="BackgroundImageFix"/>
<feColorMatrix in="SourceAlpha" type="matrix" values="0 0 0 0 0 0 0 0 0 0 0 0 0 0 0 0 0 0 127 0" result="hardAlpha"/>
<feOffset/>
<feGaussianBlur stdDeviation="3.53472"/>
<feComposite in2="hardAlpha" operator="out"/>
<feColorMatrix type="matrix" values="0 0 0 0 0 0 0 0 0 0 0 0 0 0 0 0 0 0 0.5 0"/>
<feBlend mode="normal" in2="BackgroundImageFix" result="effect1_dropShadow_126_374"/>
<feBlend mode="normal" in="SourceGraphic" in2="effect1_dropShadow_126_374" result="shape"/>
</filter>
<clipPath id="clip0_126_374">
<rect width="509" height="361.956" fill="white" transform="translate(245 46)"/>
</clipPath>
</defs>
</svg>
