<svg width="588" height="650" viewBox="0 0 588 650" fill="none" xmlns="http://www.w3.org/2000/svg">
<path d="M133.5 528.5C102.167 528.5 76.8333 523.5 57.5 513.5C38.5 503.167 22.6667 487.333 10 466L47.5 438.5C57.1667 456.833 69.1667 470.167 83.5 478.5C97.8333 486.833 115.667 491 137 491C168.333 491 193.167 484.5 211.5 471.5C229.833 458.167 239 440.5 239 418.5C239 407.833 235.167 399.333 227.5 393C220.167 386.667 210.833 381.833 199.5 378.5C188.167 374.833 172.167 370.833 151.5 366.5L140 364C113.333 358 92.8333 348.5 78.5 335.5C64.1667 322.167 57 304 57 281C57 258.667 62.5 239 73.5 222C84.8333 204.667 100.833 191.333 121.5 182C142.167 172.333 166.5 167.5 194.5 167.5C224.5 167.5 249.333 172.333 269 182C288.667 191.667 302.833 205.667 311.5 224L275 250C257.333 220 229.667 205 192 205C165.333 205 144.167 211.5 128.5 224.5C113.167 237.167 105.5 254.167 105.5 275.5C105.5 291.167 111.667 302.667 124 310C136.333 317 153.833 322.667 176.5 327C200.167 332 219.333 337.167 234 342.5C249 347.5 261.667 355.833 272 367.5C282.333 378.833 287.5 394.333 287.5 414C287.5 436.667 281.167 456.667 268.5 474C256.167 491.333 238.333 504.833 215 514.5C192 523.833 164.833 528.5 133.5 528.5ZM441.023 523C406.357 523 380.857 516.667 364.523 504C348.19 491.333 340.023 472 340.023 446C340.023 435.333 340.857 425.667 342.523 417L386.023 173H433.523L390.023 417C388.69 427 388.023 433.667 388.023 437C388.023 453.333 392.69 465.5 402.023 473.5C411.357 481.5 425.857 485.5 445.523 485.5H558.523L552.023 523H441.023Z" fill="#298421"/>
</svg>
