<svg width="588" height="650" viewBox="0 0 588 650" fill="none" xmlns="http://www.w3.org/2000/svg">
<path d="M129.5 523C94.8333 523 69.3333 516.667 53 504C36.6667 491.333 28.5 472 28.5 446C28.5 435.333 29.3333 425.667 31 417L74.5 173H122L78.5 417C77.1667 427 76.5 433.667 76.5 437C76.5 453.333 81.1667 465.5 90.5 473.5C99.8333 481.5 114.333 485.5 134 485.5H247L240.5 523H129.5ZM409.867 528.5C378.534 528.5 353.201 523.5 333.867 513.5C314.867 503.167 299.034 487.333 286.367 466L323.867 438.5C333.534 456.833 345.534 470.167 359.867 478.5C374.201 486.833 392.034 491 413.367 491C444.701 491 469.534 484.5 487.867 471.5C506.201 458.167 515.367 440.5 515.367 418.5C515.367 407.833 511.534 399.333 503.867 393C496.534 386.667 487.201 381.833 475.867 378.5C464.534 374.833 448.534 370.833 427.867 366.5L416.367 364C389.701 358 369.201 348.5 354.867 335.5C340.534 322.167 333.367 304 333.367 281C333.367 258.667 338.867 239 349.867 222C361.201 204.667 377.201 191.333 397.867 182C418.534 172.333 442.867 167.5 470.867 167.5C500.867 167.5 525.701 172.333 545.367 182C565.034 191.667 579.201 205.667 587.867 224L551.367 250C533.701 220 506.034 205 468.367 205C441.701 205 420.534 211.5 404.867 224.5C389.534 237.167 381.867 254.167 381.867 275.5C381.867 291.167 388.034 302.667 400.367 310C412.701 317 430.201 322.667 452.867 327C476.534 332 495.701 337.167 510.367 342.5C525.367 347.5 538.034 355.833 548.367 367.5C558.701 378.833 563.867 394.333 563.867 414C563.867 436.667 557.534 456.667 544.867 474C532.534 491.333 514.701 504.833 491.367 514.5C468.367 523.833 441.201 528.5 409.867 528.5Z" fill="#298421"/>
</svg>
