<svg width="451" height="351" viewBox="0 0 451 351" fill="none" xmlns="http://www.w3.org/2000/svg">
<rect width="450.435" height="350.339" fill="#BF5382"/>
<path d="M140.039 133.249L132.899 136.689V146.745L130.428 148.862V141.452L126.858 140.129L119.168 143.305V156.536L115.324 159.711V114.461L112.16 112.609L107.634 114.197V122.135H104.888V113.932L101.593 112.609L98.2974 113.932V122.135H95.5512V114.197L91.0255 112.609L87.8619 114.461V159.711L84.0172 156.536V143.305L76.328 140.129L72.7579 141.452V148.862L70.2864 146.745V136.689L63.1463 133.249L58.7524 134.974V206.469L98.0227 238.443V206.284L70.2864 188.864V177.97L101.593 194.297L132.899 177.97V188.864L105.163 206.284V238.443L144.433 206.469V134.974L140.039 133.249Z" fill="white"/>
<path d="M211.218 190.001H204.127L189.25 178.304C188.446 177.683 188.3 177.098 188.3 176.367C188.3 175.563 188.519 174.978 189.47 174.247L203.542 163.428H210.67L193.271 176.404L211.218 190.001ZM186.874 190.001H182.232V163.428H186.874V190.001ZM247.515 190.001H241.922L237.938 183.312H225.364L227.557 179.547H235.708L229.787 169.605L217.725 190.001H212.425L227.703 164.561C228.252 163.647 228.946 163.062 229.97 163.062C230.993 163.062 231.651 163.647 232.199 164.561L247.515 190.001ZM272.892 190.001H250.375V163.428H255.018V185.359H272.892V190.001ZM287.539 190.001H282.896V179.913L268.787 163.428H275.038L285.382 175.673L295.763 163.428H301.684L287.539 179.913V190.001ZM319.843 190.001H304.454V163.428H319.843C327.336 163.428 332.783 168.728 332.783 176.44C332.783 184.153 327.336 190.001 319.843 190.001ZM309.06 185.359H319.843C324.631 185.359 328.14 181.667 328.14 176.66C328.14 171.652 324.631 168.07 319.843 168.07H309.06V185.359ZM341.479 190.001H336.836V163.428H341.479V190.001ZM379.625 190.001H374.032L370.048 183.312H357.474L359.667 179.547H367.818L361.897 169.605L349.835 190.001H344.534L359.813 164.561C360.362 163.647 361.056 163.062 362.08 163.062C363.103 163.062 363.761 163.647 364.309 164.561L379.625 190.001ZM405.477 189.343L386.798 170.555V190.001H382.376V165.877C382.376 164.159 383.289 163.099 384.752 163.099C385.446 163.099 386.031 163.355 386.725 164.049L405.477 182.654V163.208H409.9V187.552C409.9 189.307 408.949 190.33 407.597 190.33C406.829 190.33 406.135 190.001 405.477 189.343Z" fill="white"/>
</svg>
