<svg width="1200" height="650" viewBox="0 0 1200 650" fill="none" xmlns="http://www.w3.org/2000/svg">
<path d="M0 340.036L258.526 157V205.575L190.896 253.094L63.0805 340.036L190.896 426.979L258.526 474.498V523.073L0 340.036Z" fill="#0C3808"/>
<path d="M1200 339.964L941.474 523V474.425L1009.1 426.906L1136.92 339.964L1009.1 253.021L941.474 205.502V156.927L1200 339.964Z" fill="#0C3808"/>
<path d="M435.5 523C400.833 523 375.333 516.667 359 504C342.667 491.333 334.5 472 334.5 446C334.5 435.333 335.333 425.667 337 417L380.5 173H428L384.5 417C383.167 427 382.5 433.667 382.5 437C382.5 453.333 387.167 465.5 396.5 473.5C405.833 481.5 420.333 485.5 440 485.5H553L546.5 523H435.5ZM715.867 528.5C684.534 528.5 659.201 523.5 639.867 513.5C620.867 503.167 605.034 487.333 592.367 466L629.867 438.5C639.534 456.833 651.534 470.167 665.867 478.5C680.201 486.833 698.034 491 719.367 491C750.701 491 775.534 484.5 793.867 471.5C812.201 458.167 821.367 440.5 821.367 418.5C821.367 407.833 817.534 399.333 809.867 393C802.534 386.667 793.201 381.833 781.867 378.5C770.534 374.833 754.534 370.833 733.867 366.5L722.367 364C695.701 358 675.201 348.5 660.867 335.5C646.534 322.167 639.367 304 639.367 281C639.367 258.667 644.867 239 655.867 222C667.201 204.667 683.201 191.333 703.867 182C724.534 172.333 748.867 167.5 776.867 167.5C806.867 167.5 831.701 172.333 851.367 182C871.034 191.667 885.201 205.667 893.867 224L857.367 250C839.701 220 812.034 205 774.367 205C747.701 205 726.534 211.5 710.867 224.5C695.534 237.167 687.867 254.167 687.867 275.5C687.867 291.167 694.034 302.667 706.367 310C718.701 317 736.201 322.667 758.867 327C782.534 332 801.701 337.167 816.367 342.5C831.367 347.5 844.034 355.833 854.367 367.5C864.701 378.833 869.867 394.333 869.867 414C869.867 436.667 863.534 456.667 850.867 474C838.534 491.333 820.701 504.833 797.367 514.5C774.367 523.833 747.201 528.5 715.867 528.5Z" fill="#0C3808"/>
</svg>
