<svg width="1200" height="650" viewBox="0 0 1200 650" fill="none" xmlns="http://www.w3.org/2000/svg">
<path d="M0 340.036L258.526 157V205.575L190.896 253.094L63.0805 340.036L190.896 426.979L258.526 474.498V523.073L0 340.036Z" fill="#0C3808"/>
<path d="M1200 339.964L941.474 523V474.425L1009.1 426.906L1136.92 339.964L1009.1 253.021L941.474 205.502V156.927L1200 339.964Z" fill="#0C3808"/>
<path d="M439.5 528.5C408.167 528.5 382.833 523.5 363.5 513.5C344.5 503.167 328.667 487.333 316 466L353.5 438.5C363.167 456.833 375.167 470.167 389.5 478.5C403.833 486.833 421.667 491 443 491C474.333 491 499.167 484.5 517.5 471.5C535.833 458.167 545 440.5 545 418.5C545 407.833 541.167 399.333 533.5 393C526.167 386.667 516.833 381.833 505.5 378.5C494.167 374.833 478.167 370.833 457.5 366.5L446 364C419.333 358 398.833 348.5 384.5 335.5C370.167 322.167 363 304 363 281C363 258.667 368.5 239 379.5 222C390.833 204.667 406.833 191.333 427.5 182C448.167 172.333 472.5 167.5 500.5 167.5C530.5 167.5 555.333 172.333 575 182C594.667 191.667 608.833 205.667 617.5 224L581 250C563.333 220 535.667 205 498 205C471.333 205 450.167 211.5 434.5 224.5C419.167 237.167 411.5 254.167 411.5 275.5C411.5 291.167 417.667 302.667 430 310C442.333 317 459.833 322.667 482.5 327C506.167 332 525.333 337.167 540 342.5C555 347.5 567.667 355.833 578 367.5C588.333 378.833 593.5 394.333 593.5 414C593.5 436.667 587.167 456.667 574.5 474C562.167 491.333 544.333 504.833 521 514.5C498 523.833 470.833 528.5 439.5 528.5ZM747.023 523C712.357 523 686.857 516.667 670.523 504C654.19 491.333 646.023 472 646.023 446C646.023 435.333 646.857 425.667 648.523 417L692.023 173H739.523L696.023 417C694.69 427 694.023 433.667 694.023 437C694.023 453.333 698.69 465.5 708.023 473.5C717.357 481.5 731.857 485.5 751.523 485.5H864.523L858.023 523H747.023Z" fill="#0C3808"/>
</svg>
