<svg width="450" height="350" viewBox="0 0 450 350" fill="none" xmlns="http://www.w3.org/2000/svg">
<rect width="450" height="350" fill="black"/>
<path d="M130.045 126.275C127.185 126.275 124.527 125.798 122.07 124.845C119.65 123.855 117.523 122.48 115.69 120.72C113.893 118.923 112.5 116.852 111.51 114.505C110.52 112.122 110.025 109.537 110.025 106.75C110.025 103.963 110.52 101.397 111.51 99.05C112.5 96.6667 113.893 94.595 115.69 92.835C117.523 91.0383 119.65 89.6633 122.07 88.71C124.527 87.72 127.185 87.225 130.045 87.225C132.905 87.225 135.545 87.72 137.965 88.71C140.422 89.6633 142.548 91.02 144.345 92.78C146.142 94.54 147.535 96.6117 148.525 98.995C149.552 101.342 150.065 103.927 150.065 106.75C150.065 109.573 149.552 112.177 148.525 114.56C147.535 116.907 146.142 118.96 144.345 120.72C142.548 122.48 140.422 123.855 137.965 124.845C135.545 125.798 132.905 126.275 130.045 126.275ZM130.045 123.69C132.502 123.69 134.775 123.268 136.865 122.425C138.955 121.582 140.77 120.39 142.31 118.85C143.85 117.31 145.042 115.513 145.885 113.46C146.765 111.407 147.205 109.17 147.205 106.75C147.205 104.293 146.765 102.057 145.885 100.04C145.042 97.9867 143.85 96.19 142.31 94.65C140.77 93.11 138.955 91.9183 136.865 91.075C134.775 90.2317 132.502 89.81 130.045 89.81C127.588 89.81 125.315 90.2317 123.225 91.075C121.135 91.9183 119.302 93.11 117.725 94.65C116.185 96.19 114.975 97.9867 114.095 100.04C113.252 102.057 112.83 104.293 112.83 106.75C112.83 109.17 113.252 111.407 114.095 113.46C114.975 115.513 116.185 117.31 117.725 118.85C119.302 120.39 121.135 121.582 123.225 122.425C125.315 123.268 127.588 123.69 130.045 123.69ZM173.92 126V87.5H187.725C192.565 87.5 196.36 88.6367 199.11 90.91C201.86 93.1833 203.235 96.3733 203.235 100.48C203.235 103.157 202.612 105.467 201.365 107.41C200.118 109.317 198.34 110.802 196.03 111.865C193.72 112.892 190.952 113.405 187.725 113.405H175.46L176.725 112.085V126H173.92ZM200.65 126L190.64 112.03H193.83L203.84 126H200.65ZM176.725 112.25L175.46 110.93H187.725C191.868 110.93 195.003 110.013 197.13 108.18C199.293 106.347 200.375 103.78 200.375 100.48C200.375 97.1433 199.293 94.5767 197.13 92.78C195.003 90.9467 191.868 90.03 187.725 90.03H175.46L176.725 88.655V112.25ZM238.411 126L221.251 87.5H224.331L240.721 124.295H239.016L255.461 87.5H258.376L241.216 126H238.411ZM279.516 126V87.5H282.321V126H279.516ZM319.982 126.275C317.122 126.275 314.409 125.798 311.842 124.845C309.312 123.855 307.351 122.59 305.957 121.05L307.222 118.96C308.542 120.317 310.339 121.472 312.612 122.425C314.922 123.342 317.361 123.8 319.927 123.8C322.494 123.8 324.584 123.47 326.197 122.81C327.847 122.113 329.057 121.197 329.827 120.06C330.634 118.923 331.037 117.658 331.037 116.265C331.037 114.615 330.597 113.295 329.717 112.305C328.837 111.315 327.682 110.527 326.252 109.94C324.822 109.353 323.264 108.858 321.577 108.455C319.891 108.052 318.186 107.63 316.462 107.19C314.739 106.713 313.162 106.108 311.732 105.375C310.302 104.642 309.147 103.652 308.267 102.405C307.424 101.122 307.002 99.4717 307.002 97.455C307.002 95.6217 307.479 93.935 308.432 92.395C309.386 90.855 310.871 89.6083 312.887 88.655C314.904 87.7017 317.489 87.225 320.642 87.225C322.769 87.225 324.859 87.5367 326.912 88.16C329.002 88.7833 330.781 89.6267 332.247 90.69L331.202 92.945C329.589 91.845 327.847 91.0383 325.977 90.525C324.144 89.975 322.366 89.7 320.642 89.7C318.186 89.7 316.151 90.0483 314.537 90.745C312.924 91.4417 311.732 92.3767 310.962 93.55C310.192 94.6867 309.807 95.97 309.807 97.4C309.807 99.05 310.229 100.37 311.072 101.36C311.952 102.35 313.107 103.138 314.537 103.725C315.967 104.312 317.544 104.807 319.267 105.21C320.991 105.613 322.696 106.053 324.382 106.53C326.069 106.97 327.627 107.557 329.057 108.29C330.487 109.023 331.642 110.013 332.522 111.26C333.402 112.507 333.842 114.12 333.842 116.1C333.842 117.897 333.347 119.583 332.357 121.16C331.367 122.7 329.846 123.947 327.792 124.9C325.776 125.817 323.172 126.275 319.982 126.275Z" fill="#00D9FF"/>
<path d="M42.3 160.09C41.51 160.09 40.775 159.96 40.095 159.7C39.425 159.43 38.84 159.055 38.34 158.575C37.85 158.085 37.465 157.52 37.185 156.88C36.915 156.23 36.78 155.52 36.78 154.75C36.78 153.98 36.915 153.275 37.185 152.635C37.465 151.985 37.85 151.42 38.34 150.94C38.84 150.45 39.425 150.075 40.095 149.815C40.765 149.545 41.5 149.41 42.3 149.41C43.09 149.41 43.82 149.545 44.49 149.815C45.16 150.075 45.74 150.445 46.23 150.925C46.73 151.405 47.115 151.97 47.385 152.62C47.665 153.27 47.805 153.98 47.805 154.75C47.805 155.52 47.665 156.23 47.385 156.88C47.115 157.53 46.73 158.095 46.23 158.575C45.74 159.055 45.16 159.43 44.49 159.7C43.82 159.96 43.09 160.09 42.3 160.09ZM42.3 159.1C42.93 159.1 43.51 158.995 44.04 158.785C44.58 158.565 45.045 158.26 45.435 157.87C45.835 157.47 46.145 157.01 46.365 156.49C46.585 155.96 46.695 155.38 46.695 154.75C46.695 154.12 46.585 153.545 46.365 153.025C46.145 152.495 45.835 152.035 45.435 151.645C45.045 151.245 44.58 150.94 44.04 150.73C43.51 150.51 42.93 150.4 42.3 150.4C41.67 150.4 41.085 150.51 40.545 150.73C40.005 150.94 39.535 151.245 39.135 151.645C38.745 152.035 38.435 152.495 38.205 153.025C37.985 153.545 37.875 154.12 37.875 154.75C37.875 155.37 37.985 155.945 38.205 156.475C38.435 157.005 38.745 157.47 39.135 157.87C39.535 158.26 40.005 158.565 40.545 158.785C41.085 158.995 41.67 159.1 42.3 159.1ZM54.133 160.075C53.453 160.075 52.838 159.92 52.288 159.61C51.738 159.29 51.298 158.835 50.968 158.245C50.648 157.645 50.488 156.915 50.488 156.055C50.488 155.195 50.648 154.47 50.968 153.88C51.288 153.28 51.723 152.825 52.273 152.515C52.823 152.205 53.443 152.05 54.133 152.05C54.883 152.05 55.553 152.22 56.143 152.56C56.743 152.89 57.213 153.36 57.553 153.97C57.893 154.57 58.063 155.265 58.063 156.055C58.063 156.855 57.893 157.555 57.553 158.155C57.213 158.755 56.743 159.225 56.143 159.565C55.553 159.905 54.883 160.075 54.133 160.075ZM50.068 162.91V152.125H51.088V154.495L50.983 156.07L51.133 157.66V162.91H50.068ZM54.058 159.13C54.618 159.13 55.118 159.005 55.558 158.755C55.998 158.495 56.348 158.135 56.608 157.675C56.868 157.205 56.998 156.665 56.998 156.055C56.998 155.445 56.868 154.91 56.608 154.45C56.348 153.99 55.998 153.63 55.558 153.37C55.118 153.11 54.618 152.98 54.058 152.98C53.498 152.98 52.993 153.11 52.543 153.37C52.103 153.63 51.753 153.99 51.493 154.45C51.243 154.91 51.118 155.445 51.118 156.055C51.118 156.665 51.243 157.205 51.493 157.675C51.753 158.135 52.103 158.495 52.543 158.755C52.993 159.005 53.498 159.13 54.058 159.13ZM60.234 160V152.125H61.254V154.27L61.149 153.895C61.369 153.295 61.739 152.84 62.259 152.53C62.779 152.21 63.424 152.05 64.194 152.05V153.085C64.154 153.085 64.114 153.085 64.074 153.085C64.034 153.075 63.994 153.07 63.954 153.07C63.124 153.07 62.474 153.325 62.004 153.835C61.534 154.335 61.299 155.05 61.299 155.98V160H60.234ZM66.1373 160V152.125H67.2023V160H66.1373ZM66.6773 150.385C66.4573 150.385 66.2723 150.31 66.1223 150.16C65.9723 150.01 65.8973 149.83 65.8973 149.62C65.8973 149.41 65.9723 149.235 66.1223 149.095C66.2723 148.945 66.4573 148.87 66.6773 148.87C66.8973 148.87 67.0823 148.94 67.2323 149.08C67.3823 149.22 67.4573 149.395 67.4573 149.605C67.4573 149.825 67.3823 150.01 67.2323 150.16C67.0923 150.31 66.9073 150.385 66.6773 150.385ZM70.1657 160V152.125H71.1857V154.255L71.0207 153.88C71.2607 153.31 71.6457 152.865 72.1757 152.545C72.7157 152.215 73.3507 152.05 74.0807 152.05C74.8507 152.05 75.5057 152.245 76.0457 152.635C76.5857 153.015 76.9357 153.59 77.0957 154.36L76.6757 154.195C76.9057 153.555 77.3107 153.04 77.8907 152.65C78.4807 152.25 79.1857 152.05 80.0057 152.05C80.6457 152.05 81.2007 152.175 81.6707 152.425C82.1507 152.665 82.5207 153.035 82.7807 153.535C83.0507 154.035 83.1857 154.665 83.1857 155.425V160H82.1207V155.53C82.1207 154.7 81.9207 154.075 81.5207 153.655C81.1307 153.225 80.5757 153.01 79.8557 153.01C79.3157 153.01 78.8457 153.125 78.4457 153.355C78.0557 153.575 77.7507 153.9 77.5307 154.33C77.3207 154.75 77.2157 155.26 77.2157 155.86V160H76.1507V155.53C76.1507 154.7 75.9507 154.075 75.5507 153.655C75.1507 153.225 74.5907 153.01 73.8707 153.01C73.3407 153.01 72.8757 153.125 72.4757 153.355C72.0757 153.575 71.7657 153.9 71.5457 154.33C71.3357 154.75 71.2307 155.26 71.2307 155.86V160H70.1657ZM86.0739 160V152.125H87.1389V160H86.0739ZM86.6139 150.385C86.3939 150.385 86.2089 150.31 86.0589 150.16C85.9089 150.01 85.8339 149.83 85.8339 149.62C85.8339 149.41 85.9089 149.235 86.0589 149.095C86.2089 148.945 86.3939 148.87 86.6139 148.87C86.8339 148.87 87.0189 148.94 87.1689 149.08C87.3189 149.22 87.3939 149.395 87.3939 149.605C87.3939 149.825 87.3189 150.01 87.1689 150.16C87.0289 150.31 86.8439 150.385 86.6139 150.385ZM89.2472 160V159.295L94.4972 152.65L94.7222 153.01H89.3372V152.125H95.5622V152.815L90.3272 159.475L90.0572 159.115H95.6672V160H89.2472ZM100.976 160.075C100.156 160.075 99.4365 159.905 98.8165 159.565C98.1965 159.215 97.7115 158.74 97.3615 158.14C97.0115 157.53 96.8365 156.835 96.8365 156.055C96.8365 155.275 97.0015 154.585 97.3315 153.985C97.6715 153.385 98.1315 152.915 98.7115 152.575C99.3015 152.225 99.9615 152.05 100.691 152.05C101.431 152.05 102.086 152.22 102.656 152.56C103.236 152.89 103.691 153.36 104.021 153.97C104.351 154.57 104.516 155.265 104.516 156.055C104.516 156.105 104.511 156.16 104.501 156.22C104.501 156.27 104.501 156.325 104.501 156.385H97.6465V155.59H103.931L103.511 155.905C103.511 155.335 103.386 154.83 103.136 154.39C102.896 153.94 102.566 153.59 102.146 153.34C101.726 153.09 101.241 152.965 100.691 152.965C100.151 152.965 99.6665 153.09 99.2365 153.34C98.8065 153.59 98.4715 153.94 98.2315 154.39C97.9915 154.84 97.8715 155.355 97.8715 155.935V156.1C97.8715 156.7 98.0015 157.23 98.2615 157.69C98.5315 158.14 98.9015 158.495 99.3715 158.755C99.8515 159.005 100.396 159.13 101.006 159.13C101.486 159.13 101.931 159.045 102.341 158.875C102.761 158.705 103.121 158.445 103.421 158.095L104.021 158.785C103.671 159.205 103.231 159.525 102.701 159.745C102.181 159.965 101.606 160.075 100.976 160.075ZM109.819 160.075C109.069 160.075 108.394 159.905 107.794 159.565C107.204 159.225 106.739 158.755 106.399 158.155C106.059 157.545 105.889 156.845 105.889 156.055C105.889 155.255 106.059 154.555 106.399 153.955C106.739 153.355 107.204 152.89 107.794 152.56C108.394 152.22 109.069 152.05 109.819 152.05C110.509 152.05 111.124 152.205 111.664 152.515C112.214 152.825 112.649 153.28 112.969 153.88C113.299 154.47 113.464 155.195 113.464 156.055C113.464 156.905 113.304 157.63 112.984 158.23C112.664 158.83 112.229 159.29 111.679 159.61C111.139 159.92 110.519 160.075 109.819 160.075ZM109.894 159.13C110.454 159.13 110.954 159.005 111.394 158.755C111.844 158.495 112.194 158.135 112.444 157.675C112.704 157.205 112.834 156.665 112.834 156.055C112.834 155.435 112.704 154.895 112.444 154.435C112.194 153.975 111.844 153.62 111.394 153.37C110.954 153.11 110.454 152.98 109.894 152.98C109.344 152.98 108.849 153.11 108.409 153.37C107.969 153.62 107.619 153.975 107.359 154.435C107.099 154.895 106.969 155.435 106.969 156.055C106.969 156.665 107.099 157.205 107.359 157.675C107.619 158.135 107.969 158.495 108.409 158.755C108.849 159.005 109.344 159.13 109.894 159.13ZM112.864 160V157.63L112.969 156.04L112.819 154.45V148.87H113.884V160H112.864ZM121.001 160V149.5H124.931C126.261 149.5 127.306 149.82 128.066 150.46C128.836 151.09 129.221 151.97 129.221 153.1C129.221 153.84 129.046 154.48 128.696 155.02C128.356 155.55 127.866 155.96 127.226 156.25C126.586 156.53 125.821 156.67 124.931 156.67H121.616L122.111 156.16V160H121.001ZM128.171 160L125.471 156.19H126.671L129.386 160H128.171ZM122.111 156.25L121.616 155.725H124.901C125.951 155.725 126.746 155.495 127.286 155.035C127.836 154.575 128.111 153.93 128.111 153.1C128.111 152.26 127.836 151.61 127.286 151.15C126.746 150.69 125.951 150.46 124.901 150.46H121.616L122.111 149.935V156.25ZM134.961 160.075C134.141 160.075 133.421 159.905 132.801 159.565C132.181 159.215 131.696 158.74 131.346 158.14C130.996 157.53 130.821 156.835 130.821 156.055C130.821 155.275 130.986 154.585 131.316 153.985C131.656 153.385 132.116 152.915 132.696 152.575C133.286 152.225 133.946 152.05 134.676 152.05C135.416 152.05 136.071 152.22 136.641 152.56C137.221 152.89 137.676 153.36 138.006 153.97C138.336 154.57 138.501 155.265 138.501 156.055C138.501 156.105 138.496 156.16 138.486 156.22C138.486 156.27 138.486 156.325 138.486 156.385H131.631V155.59H137.916L137.496 155.905C137.496 155.335 137.371 154.83 137.121 154.39C136.881 153.94 136.551 153.59 136.131 153.34C135.711 153.09 135.226 152.965 134.676 152.965C134.136 152.965 133.651 153.09 133.221 153.34C132.791 153.59 132.456 153.94 132.216 154.39C131.976 154.84 131.856 155.355 131.856 155.935V156.1C131.856 156.7 131.986 157.23 132.246 157.69C132.516 158.14 132.886 158.495 133.356 158.755C133.836 159.005 134.381 159.13 134.991 159.13C135.471 159.13 135.916 159.045 136.326 158.875C136.746 158.705 137.106 158.445 137.406 158.095L138.006 158.785C137.656 159.205 137.216 159.525 136.686 159.745C136.166 159.965 135.591 160.075 134.961 160.075ZM145.384 160V158.26L145.339 157.975V155.065C145.339 154.395 145.149 153.88 144.769 153.52C144.399 153.16 143.844 152.98 143.104 152.98C142.594 152.98 142.109 153.065 141.649 153.235C141.189 153.405 140.799 153.63 140.479 153.91L139.999 153.115C140.399 152.775 140.879 152.515 141.439 152.335C141.999 152.145 142.589 152.05 143.209 152.05C144.229 152.05 145.014 152.305 145.564 152.815C146.124 153.315 146.404 154.08 146.404 155.11V160H145.384ZM142.669 160.075C142.079 160.075 141.564 159.98 141.124 159.79C140.694 159.59 140.364 159.32 140.134 158.98C139.904 158.63 139.789 158.23 139.789 157.78C139.789 157.37 139.884 157 140.074 156.67C140.274 156.33 140.594 156.06 141.034 155.86C141.484 155.65 142.084 155.545 142.834 155.545H145.549V156.34H142.864C142.104 156.34 141.574 156.475 141.274 156.745C140.984 157.015 140.839 157.35 140.839 157.75C140.839 158.2 141.014 158.56 141.364 158.83C141.714 159.1 142.204 159.235 142.834 159.235C143.434 159.235 143.949 159.1 144.379 158.83C144.819 158.55 145.139 158.15 145.339 157.63L145.579 158.365C145.379 158.885 145.029 159.3 144.529 159.61C144.039 159.92 143.419 160.075 142.669 160.075ZM151.412 160.075C150.762 160.075 150.147 159.985 149.567 159.805C148.987 159.615 148.532 159.38 148.202 159.1L148.682 158.26C149.002 158.5 149.412 158.71 149.912 158.89C150.412 159.06 150.937 159.145 151.487 159.145C152.237 159.145 152.777 159.03 153.107 158.8C153.437 158.56 153.602 158.245 153.602 157.855C153.602 157.565 153.507 157.34 153.317 157.18C153.137 157.01 152.897 156.885 152.597 156.805C152.297 156.715 151.962 156.64 151.592 156.58C151.222 156.52 150.852 156.45 150.482 156.37C150.122 156.29 149.792 156.175 149.492 156.025C149.192 155.865 148.947 155.65 148.757 155.38C148.577 155.11 148.487 154.75 148.487 154.3C148.487 153.87 148.607 153.485 148.847 153.145C149.087 152.805 149.437 152.54 149.897 152.35C150.367 152.15 150.937 152.05 151.607 152.05C152.117 152.05 152.627 152.12 153.137 152.26C153.647 152.39 154.067 152.565 154.397 152.785L153.932 153.64C153.582 153.4 153.207 153.23 152.807 153.13C152.407 153.02 152.007 152.965 151.607 152.965C150.897 152.965 150.372 153.09 150.032 153.34C149.702 153.58 149.537 153.89 149.537 154.27C149.537 154.57 149.627 154.805 149.807 154.975C149.997 155.145 150.242 155.28 150.542 155.38C150.852 155.47 151.187 155.545 151.547 155.605C151.917 155.665 152.282 155.74 152.642 155.83C153.012 155.91 153.347 156.025 153.647 156.175C153.957 156.315 154.202 156.52 154.382 156.79C154.572 157.05 154.667 157.395 154.667 157.825C154.667 158.285 154.537 158.685 154.277 159.025C154.027 159.355 153.657 159.615 153.167 159.805C152.687 159.985 152.102 160.075 151.412 160.075ZM159.831 160.075C159.071 160.075 158.386 159.905 157.776 159.565C157.176 159.215 156.701 158.74 156.351 158.14C156.001 157.53 155.826 156.835 155.826 156.055C155.826 155.265 156.001 154.57 156.351 153.97C156.701 153.37 157.176 152.9 157.776 152.56C158.376 152.22 159.061 152.05 159.831 152.05C160.611 152.05 161.301 152.22 161.901 152.56C162.511 152.9 162.986 153.37 163.326 153.97C163.676 154.57 163.851 155.265 163.851 156.055C163.851 156.835 163.676 157.53 163.326 158.14C162.986 158.74 162.511 159.215 161.901 159.565C161.291 159.905 160.601 160.075 159.831 160.075ZM159.831 159.13C160.401 159.13 160.906 159.005 161.346 158.755C161.786 158.495 162.131 158.135 162.381 157.675C162.641 157.205 162.771 156.665 162.771 156.055C162.771 155.435 162.641 154.895 162.381 154.435C162.131 153.975 161.786 153.62 161.346 153.37C160.906 153.11 160.406 152.98 159.846 152.98C159.286 152.98 158.786 153.11 158.346 153.37C157.906 153.62 157.556 153.975 157.296 154.435C157.036 154.895 156.906 155.435 156.906 156.055C156.906 156.665 157.036 157.205 157.296 157.675C157.556 158.135 157.906 158.495 158.346 158.755C158.786 159.005 159.281 159.13 159.831 159.13ZM166.025 160V152.125H167.045V154.285L166.88 153.88C167.13 153.31 167.53 152.865 168.08 152.545C168.63 152.215 169.285 152.05 170.045 152.05C170.685 152.05 171.245 152.175 171.725 152.425C172.215 152.665 172.595 153.035 172.865 153.535C173.145 154.035 173.285 154.665 173.285 155.425V160H172.22V155.53C172.22 154.7 172.01 154.075 171.59 153.655C171.18 153.225 170.6 153.01 169.85 153.01C169.29 153.01 168.8 153.125 168.38 153.355C167.97 153.575 167.65 153.9 167.42 154.33C167.2 154.75 167.09 155.26 167.09 155.86V160H166.025ZM176.162 160V152.125H177.227V160H176.162ZM176.702 150.385C176.482 150.385 176.297 150.31 176.147 150.16C175.997 150.01 175.922 149.83 175.922 149.62C175.922 149.41 175.997 149.235 176.147 149.095C176.297 148.945 176.482 148.87 176.702 148.87C176.922 148.87 177.107 148.94 177.257 149.08C177.407 149.22 177.482 149.395 177.482 149.605C177.482 149.825 177.407 150.01 177.257 150.16C177.117 150.31 176.932 150.385 176.702 150.385ZM180.19 160V152.125H181.21V154.285L181.045 153.88C181.295 153.31 181.695 152.865 182.245 152.545C182.795 152.215 183.45 152.05 184.21 152.05C184.85 152.05 185.41 152.175 185.89 152.425C186.38 152.665 186.76 153.035 187.03 153.535C187.31 154.035 187.45 154.665 187.45 155.425V160H186.385V155.53C186.385 154.7 186.175 154.075 185.755 153.655C185.345 153.225 184.765 153.01 184.015 153.01C183.455 153.01 182.965 153.125 182.545 153.355C182.135 153.575 181.815 153.9 181.585 154.33C181.365 154.75 181.255 155.26 181.255 155.86V160H180.19ZM193.687 162.985C192.967 162.985 192.277 162.88 191.617 162.67C190.957 162.46 190.422 162.16 190.012 161.77L190.552 160.96C190.922 161.29 191.377 161.55 191.917 161.74C192.467 161.94 193.047 162.04 193.657 162.04C194.657 162.04 195.392 161.805 195.862 161.335C196.332 160.875 196.567 160.155 196.567 159.175V157.21L196.717 155.86L196.612 154.51V152.125H197.632V159.04C197.632 160.4 197.297 161.395 196.627 162.025C195.967 162.665 194.987 162.985 193.687 162.985ZM193.492 159.7C192.742 159.7 192.067 159.54 191.467 159.22C190.867 158.89 190.392 158.435 190.042 157.855C189.702 157.275 189.532 156.61 189.532 155.86C189.532 155.11 189.702 154.45 190.042 153.88C190.392 153.3 190.867 152.85 191.467 152.53C192.067 152.21 192.742 152.05 193.492 152.05C194.192 152.05 194.822 152.195 195.382 152.485C195.942 152.775 196.387 153.205 196.717 153.775C197.047 154.345 197.212 155.04 197.212 155.86C197.212 156.68 197.047 157.375 196.717 157.945C196.387 158.515 195.942 158.95 195.382 159.25C194.822 159.55 194.192 159.7 193.492 159.7ZM193.597 158.755C194.177 158.755 194.692 158.635 195.142 158.395C195.592 158.145 195.947 157.805 196.207 157.375C196.467 156.935 196.597 156.43 196.597 155.86C196.597 155.29 196.467 154.79 196.207 154.36C195.947 153.93 195.592 153.595 195.142 153.355C194.692 153.105 194.177 152.98 193.597 152.98C193.027 152.98 192.512 153.105 192.052 153.355C191.602 153.595 191.247 153.93 190.987 154.36C190.737 154.79 190.612 155.29 190.612 155.86C190.612 156.43 190.737 156.935 190.987 157.375C191.247 157.805 191.602 158.145 192.052 158.395C192.512 158.635 193.027 158.755 193.597 158.755ZM207.731 160L203.081 149.5H204.281L208.631 159.385H207.971L212.351 149.5H213.476L208.826 160H207.731ZM214.731 160V152.125H215.796V160H214.731ZM215.271 150.385C215.051 150.385 214.866 150.31 214.716 150.16C214.566 150.01 214.491 149.83 214.491 149.62C214.491 149.41 214.566 149.235 214.716 149.095C214.866 148.945 215.051 148.87 215.271 148.87C215.491 148.87 215.676 148.94 215.826 149.08C215.976 149.22 216.051 149.395 216.051 149.605C216.051 149.825 215.976 150.01 215.826 150.16C215.686 150.31 215.501 150.385 215.271 150.385ZM218.759 160V152.125H219.779V154.27L219.674 153.895C219.894 153.295 220.264 152.84 220.784 152.53C221.304 152.21 221.949 152.05 222.719 152.05V153.085C222.679 153.085 222.639 153.085 222.599 153.085C222.559 153.075 222.519 153.07 222.479 153.07C221.649 153.07 220.999 153.325 220.529 153.835C220.059 154.335 219.824 155.05 219.824 155.98V160H218.759ZM227.49 160.075C226.75 160.075 226.18 159.875 225.78 159.475C225.38 159.075 225.18 158.51 225.18 157.78V150.385H226.245V157.72C226.245 158.18 226.36 158.535 226.59 158.785C226.83 159.035 227.17 159.16 227.61 159.16C228.08 159.16 228.47 159.025 228.78 158.755L229.155 159.52C228.945 159.71 228.69 159.85 228.39 159.94C228.1 160.03 227.8 160.075 227.49 160.075ZM223.77 153.01V152.125H228.645V153.01H223.77ZM234.348 160.075C233.678 160.075 233.093 159.95 232.593 159.7C232.093 159.45 231.703 159.075 231.423 158.575C231.153 158.075 231.018 157.45 231.018 156.7V152.125H232.083V156.58C232.083 157.42 232.288 158.055 232.698 158.485C233.118 158.905 233.703 159.115 234.453 159.115C235.003 159.115 235.478 159.005 235.878 158.785C236.288 158.555 236.598 158.225 236.808 157.795C237.028 157.365 237.138 156.85 237.138 156.25V152.125H238.203V160H237.183V157.84L237.348 158.23C237.098 158.81 236.708 159.265 236.178 159.595C235.658 159.915 235.048 160.075 234.348 160.075ZM246.107 160V158.26L246.062 157.975V155.065C246.062 154.395 245.872 153.88 245.492 153.52C245.122 153.16 244.567 152.98 243.827 152.98C243.317 152.98 242.832 153.065 242.372 153.235C241.912 153.405 241.522 153.63 241.202 153.91L240.722 153.115C241.122 152.775 241.602 152.515 242.162 152.335C242.722 152.145 243.312 152.05 243.932 152.05C244.952 152.05 245.737 152.305 246.287 152.815C246.847 153.315 247.127 154.08 247.127 155.11V160H246.107ZM243.392 160.075C242.802 160.075 242.287 159.98 241.847 159.79C241.417 159.59 241.087 159.32 240.857 158.98C240.627 158.63 240.512 158.23 240.512 157.78C240.512 157.37 240.607 157 240.797 156.67C240.997 156.33 241.317 156.06 241.757 155.86C242.207 155.65 242.807 155.545 243.557 155.545H246.272V156.34H243.587C242.827 156.34 242.297 156.475 241.997 156.745C241.707 157.015 241.562 157.35 241.562 157.75C241.562 158.2 241.737 158.56 242.087 158.83C242.437 159.1 242.927 159.235 243.557 159.235C244.157 159.235 244.672 159.1 245.102 158.83C245.542 158.55 245.862 158.15 246.062 157.63L246.302 158.365C246.102 158.885 245.752 159.3 245.252 159.61C244.762 159.92 244.142 160.075 243.392 160.075ZM250.019 160V148.87H251.084V160H250.019ZM258.198 160V149.5H259.308V160H258.198ZM262.5 160V152.125H263.52V154.285L263.355 153.88C263.605 153.31 264.005 152.865 264.555 152.545C265.105 152.215 265.76 152.05 266.52 152.05C267.16 152.05 267.72 152.175 268.2 152.425C268.69 152.665 269.07 153.035 269.34 153.535C269.62 154.035 269.76 154.665 269.76 155.425V160H268.695V155.53C268.695 154.7 268.485 154.075 268.065 153.655C267.655 153.225 267.075 153.01 266.325 153.01C265.765 153.01 265.275 153.125 264.855 153.355C264.445 153.575 264.125 153.9 263.895 154.33C263.675 154.75 263.565 155.26 263.565 155.86V160H262.5ZM275.126 160.075C274.386 160.075 273.816 159.875 273.416 159.475C273.016 159.075 272.816 158.51 272.816 157.78V150.385H273.881V157.72C273.881 158.18 273.996 158.535 274.226 158.785C274.466 159.035 274.806 159.16 275.246 159.16C275.716 159.16 276.106 159.025 276.416 158.755L276.791 159.52C276.581 159.71 276.326 159.85 276.026 159.94C275.736 160.03 275.436 160.075 275.126 160.075ZM271.406 153.01V152.125H276.281V153.01H271.406ZM281.797 160.075C280.977 160.075 280.257 159.905 279.637 159.565C279.017 159.215 278.532 158.74 278.182 158.14C277.832 157.53 277.657 156.835 277.657 156.055C277.657 155.275 277.822 154.585 278.152 153.985C278.492 153.385 278.952 152.915 279.532 152.575C280.122 152.225 280.782 152.05 281.512 152.05C282.252 152.05 282.907 152.22 283.477 152.56C284.057 152.89 284.512 153.36 284.842 153.97C285.172 154.57 285.337 155.265 285.337 156.055C285.337 156.105 285.332 156.16 285.322 156.22C285.322 156.27 285.322 156.325 285.322 156.385H278.467V155.59H284.752L284.332 155.905C284.332 155.335 284.207 154.83 283.957 154.39C283.717 153.94 283.387 153.59 282.967 153.34C282.547 153.09 282.062 152.965 281.512 152.965C280.972 152.965 280.487 153.09 280.057 153.34C279.627 153.59 279.292 153.94 279.052 154.39C278.812 154.84 278.692 155.355 278.692 155.935V156.1C278.692 156.7 278.822 157.23 279.082 157.69C279.352 158.14 279.722 158.495 280.192 158.755C280.672 159.005 281.217 159.13 281.827 159.13C282.307 159.13 282.752 159.045 283.162 158.875C283.582 158.705 283.942 158.445 284.242 158.095L284.842 158.785C284.492 159.205 284.052 159.525 283.522 159.745C283.002 159.965 282.427 160.075 281.797 160.075ZM287.505 160V148.87H288.57V160H287.505ZM291.533 160V148.87H292.598V160H291.533ZM295.561 160V152.125H296.626V160H295.561ZM296.101 150.385C295.881 150.385 295.696 150.31 295.546 150.16C295.396 150.01 295.321 149.83 295.321 149.62C295.321 149.41 295.396 149.235 295.546 149.095C295.696 148.945 295.881 148.87 296.101 148.87C296.321 148.87 296.506 148.94 296.656 149.08C296.806 149.22 296.881 149.395 296.881 149.605C296.881 149.825 296.806 150.01 296.656 150.16C296.516 150.31 296.331 150.385 296.101 150.385ZM302.949 162.985C302.229 162.985 301.539 162.88 300.879 162.67C300.219 162.46 299.684 162.16 299.274 161.77L299.814 160.96C300.184 161.29 300.639 161.55 301.179 161.74C301.729 161.94 302.309 162.04 302.919 162.04C303.919 162.04 304.654 161.805 305.124 161.335C305.594 160.875 305.829 160.155 305.829 159.175V157.21L305.979 155.86L305.874 154.51V152.125H306.894V159.04C306.894 160.4 306.559 161.395 305.889 162.025C305.229 162.665 304.249 162.985 302.949 162.985ZM302.754 159.7C302.004 159.7 301.329 159.54 300.729 159.22C300.129 158.89 299.654 158.435 299.304 157.855C298.964 157.275 298.794 156.61 298.794 155.86C298.794 155.11 298.964 154.45 299.304 153.88C299.654 153.3 300.129 152.85 300.729 152.53C301.329 152.21 302.004 152.05 302.754 152.05C303.454 152.05 304.084 152.195 304.644 152.485C305.204 152.775 305.649 153.205 305.979 153.775C306.309 154.345 306.474 155.04 306.474 155.86C306.474 156.68 306.309 157.375 305.979 157.945C305.649 158.515 305.204 158.95 304.644 159.25C304.084 159.55 303.454 159.7 302.754 159.7ZM302.859 158.755C303.439 158.755 303.954 158.635 304.404 158.395C304.854 158.145 305.209 157.805 305.469 157.375C305.729 156.935 305.859 156.43 305.859 155.86C305.859 155.29 305.729 154.79 305.469 154.36C305.209 153.93 304.854 153.595 304.404 153.355C303.954 153.105 303.439 152.98 302.859 152.98C302.289 152.98 301.774 153.105 301.314 153.355C300.864 153.595 300.509 153.93 300.249 154.36C299.999 154.79 299.874 155.29 299.874 155.86C299.874 156.43 299.999 156.935 300.249 157.375C300.509 157.805 300.864 158.145 301.314 158.395C301.774 158.635 302.289 158.755 302.859 158.755ZM313.203 160.075C312.383 160.075 311.663 159.905 311.043 159.565C310.423 159.215 309.938 158.74 309.588 158.14C309.238 157.53 309.063 156.835 309.063 156.055C309.063 155.275 309.228 154.585 309.558 153.985C309.898 153.385 310.358 152.915 310.938 152.575C311.528 152.225 312.188 152.05 312.918 152.05C313.658 152.05 314.313 152.22 314.883 152.56C315.463 152.89 315.918 153.36 316.248 153.97C316.578 154.57 316.743 155.265 316.743 156.055C316.743 156.105 316.738 156.16 316.728 156.22C316.728 156.27 316.728 156.325 316.728 156.385H309.873V155.59H316.158L315.738 155.905C315.738 155.335 315.613 154.83 315.363 154.39C315.123 153.94 314.793 153.59 314.373 153.34C313.953 153.09 313.468 152.965 312.918 152.965C312.378 152.965 311.893 153.09 311.463 153.34C311.033 153.59 310.698 153.94 310.458 154.39C310.218 154.84 310.098 155.355 310.098 155.935V156.1C310.098 156.7 310.228 157.23 310.488 157.69C310.758 158.14 311.128 158.495 311.598 158.755C312.078 159.005 312.623 159.13 313.233 159.13C313.713 159.13 314.158 159.045 314.568 158.875C314.988 158.705 315.348 158.445 315.648 158.095L316.248 158.785C315.898 159.205 315.458 159.525 314.928 159.745C314.408 159.965 313.833 160.075 313.203 160.075ZM318.911 160V152.125H319.931V154.285L319.766 153.88C320.016 153.31 320.416 152.865 320.966 152.545C321.516 152.215 322.171 152.05 322.931 152.05C323.571 152.05 324.131 152.175 324.611 152.425C325.101 152.665 325.481 153.035 325.751 153.535C326.031 154.035 326.171 154.665 326.171 155.425V160H325.106V155.53C325.106 154.7 324.896 154.075 324.476 153.655C324.066 153.225 323.486 153.01 322.736 153.01C322.176 153.01 321.686 153.125 321.266 153.355C320.856 153.575 320.536 153.9 320.306 154.33C320.086 154.75 319.976 155.26 319.976 155.86V160H318.911ZM332.318 160.075C331.538 160.075 330.838 159.905 330.218 159.565C329.608 159.215 329.128 158.74 328.778 158.14C328.428 157.53 328.253 156.835 328.253 156.055C328.253 155.265 328.428 154.57 328.778 153.97C329.128 153.37 329.608 152.9 330.218 152.56C330.838 152.22 331.538 152.05 332.318 152.05C332.988 152.05 333.593 152.18 334.133 152.44C334.673 152.7 335.098 153.09 335.408 153.61L334.613 154.15C334.343 153.75 334.008 153.455 333.608 153.265C333.208 153.075 332.773 152.98 332.303 152.98C331.743 152.98 331.238 153.11 330.788 153.37C330.338 153.62 329.983 153.975 329.723 154.435C329.463 154.895 329.333 155.435 329.333 156.055C329.333 156.675 329.463 157.215 329.723 157.675C329.983 158.135 330.338 158.495 330.788 158.755C331.238 159.005 331.743 159.13 332.303 159.13C332.773 159.13 333.208 159.035 333.608 158.845C334.008 158.655 334.343 158.365 334.613 157.975L335.408 158.515C335.098 159.025 334.673 159.415 334.133 159.685C333.593 159.945 332.988 160.075 332.318 160.075ZM340.713 160.075C339.893 160.075 339.173 159.905 338.553 159.565C337.933 159.215 337.448 158.74 337.098 158.14C336.748 157.53 336.573 156.835 336.573 156.055C336.573 155.275 336.738 154.585 337.068 153.985C337.408 153.385 337.868 152.915 338.448 152.575C339.038 152.225 339.698 152.05 340.428 152.05C341.168 152.05 341.823 152.22 342.393 152.56C342.973 152.89 343.428 153.36 343.758 153.97C344.088 154.57 344.253 155.265 344.253 156.055C344.253 156.105 344.248 156.16 344.238 156.22C344.238 156.27 344.238 156.325 344.238 156.385H337.383V155.59H343.668L343.248 155.905C343.248 155.335 343.123 154.83 342.873 154.39C342.633 153.94 342.303 153.59 341.883 153.34C341.463 153.09 340.978 152.965 340.428 152.965C339.888 152.965 339.403 153.09 338.973 153.34C338.543 153.59 338.208 153.94 337.968 154.39C337.728 154.84 337.608 155.355 337.608 155.935V156.1C337.608 156.7 337.738 157.23 337.998 157.69C338.268 158.14 338.638 158.495 339.108 158.755C339.588 159.005 340.133 159.13 340.743 159.13C341.223 159.13 341.668 159.045 342.078 158.875C342.498 158.705 342.858 158.445 343.158 158.095L343.758 158.785C343.408 159.205 342.968 159.525 342.438 159.745C341.918 159.965 341.343 160.075 340.713 160.075ZM353.466 160.09C352.686 160.09 351.936 159.965 351.216 159.715C350.506 159.455 349.956 159.125 349.566 158.725L350.001 157.87C350.371 158.23 350.866 158.535 351.486 158.785C352.116 159.025 352.776 159.145 353.466 159.145C354.126 159.145 354.661 159.065 355.071 158.905C355.491 158.735 355.796 158.51 355.986 158.23C356.186 157.95 356.286 157.64 356.286 157.3C356.286 156.89 356.166 156.56 355.926 156.31C355.696 156.06 355.391 155.865 355.011 155.725C354.631 155.575 354.211 155.445 353.751 155.335C353.291 155.225 352.831 155.11 352.371 154.99C351.911 154.86 351.486 154.69 351.096 154.48C350.716 154.27 350.406 153.995 350.166 153.655C349.936 153.305 349.821 152.85 349.821 152.29C349.821 151.77 349.956 151.295 350.226 150.865C350.506 150.425 350.931 150.075 351.501 149.815C352.071 149.545 352.801 149.41 353.691 149.41C354.281 149.41 354.866 149.495 355.446 149.665C356.026 149.825 356.526 150.05 356.946 150.34L356.571 151.225C356.121 150.925 355.641 150.705 355.131 150.565C354.631 150.425 354.146 150.355 353.676 150.355C353.046 150.355 352.526 150.44 352.116 150.61C351.706 150.78 351.401 151.01 351.201 151.3C351.011 151.58 350.916 151.9 350.916 152.26C350.916 152.67 351.031 153 351.261 153.25C351.501 153.5 351.811 153.695 352.191 153.835C352.581 153.975 353.006 154.1 353.466 154.21C353.926 154.32 354.381 154.44 354.831 154.57C355.291 154.7 355.711 154.87 356.091 155.08C356.481 155.28 356.791 155.55 357.021 155.89C357.261 156.23 357.381 156.675 357.381 157.225C357.381 157.735 357.241 158.21 356.961 158.65C356.681 159.08 356.251 159.43 355.671 159.7C355.101 159.96 354.366 160.09 353.466 160.09ZM359.635 162.985C359.265 162.985 358.91 162.925 358.57 162.805C358.24 162.685 357.955 162.505 357.715 162.265L358.21 161.47C358.41 161.66 358.625 161.805 358.855 161.905C359.095 162.015 359.36 162.07 359.65 162.07C360 162.07 360.3 161.97 360.55 161.77C360.81 161.58 361.055 161.24 361.285 160.75L361.795 159.595L361.915 159.43L365.155 152.125H366.205L362.26 160.945C362.04 161.455 361.795 161.86 361.525 162.16C361.265 162.46 360.98 162.67 360.67 162.79C360.36 162.92 360.015 162.985 359.635 162.985ZM361.735 160.225L358.105 152.125H359.215L362.425 159.355L361.735 160.225ZM369.732 160.075C369.082 160.075 368.467 159.985 367.887 159.805C367.307 159.615 366.852 159.38 366.522 159.1L367.002 158.26C367.322 158.5 367.732 158.71 368.232 158.89C368.732 159.06 369.257 159.145 369.807 159.145C370.557 159.145 371.097 159.03 371.427 158.8C371.757 158.56 371.922 158.245 371.922 157.855C371.922 157.565 371.827 157.34 371.637 157.18C371.457 157.01 371.217 156.885 370.917 156.805C370.617 156.715 370.282 156.64 369.912 156.58C369.542 156.52 369.172 156.45 368.802 156.37C368.442 156.29 368.112 156.175 367.812 156.025C367.512 155.865 367.267 155.65 367.077 155.38C366.897 155.11 366.807 154.75 366.807 154.3C366.807 153.87 366.927 153.485 367.167 153.145C367.407 152.805 367.757 152.54 368.217 152.35C368.687 152.15 369.257 152.05 369.927 152.05C370.437 152.05 370.947 152.12 371.457 152.26C371.967 152.39 372.387 152.565 372.717 152.785L372.252 153.64C371.902 153.4 371.527 153.23 371.127 153.13C370.727 153.02 370.327 152.965 369.927 152.965C369.217 152.965 368.692 153.09 368.352 153.34C368.022 153.58 367.857 153.89 367.857 154.27C367.857 154.57 367.947 154.805 368.127 154.975C368.317 155.145 368.562 155.28 368.862 155.38C369.172 155.47 369.507 155.545 369.867 155.605C370.237 155.665 370.602 155.74 370.962 155.83C371.332 155.91 371.667 156.025 371.967 156.175C372.277 156.315 372.522 156.52 372.702 156.79C372.892 157.05 372.987 157.395 372.987 157.825C372.987 158.285 372.857 158.685 372.597 159.025C372.347 159.355 371.977 159.615 371.487 159.805C371.007 159.985 370.422 160.075 369.732 160.075ZM377.431 160.075C376.691 160.075 376.121 159.875 375.721 159.475C375.321 159.075 375.121 158.51 375.121 157.78V150.385H376.186V157.72C376.186 158.18 376.301 158.535 376.531 158.785C376.771 159.035 377.111 159.16 377.551 159.16C378.021 159.16 378.411 159.025 378.721 158.755L379.096 159.52C378.886 159.71 378.631 159.85 378.331 159.94C378.041 160.03 377.741 160.075 377.431 160.075ZM373.711 153.01V152.125H378.586V153.01H373.711ZM384.101 160.075C383.281 160.075 382.561 159.905 381.941 159.565C381.321 159.215 380.836 158.74 380.486 158.14C380.136 157.53 379.961 156.835 379.961 156.055C379.961 155.275 380.126 154.585 380.456 153.985C380.796 153.385 381.256 152.915 381.836 152.575C382.426 152.225 383.086 152.05 383.816 152.05C384.556 152.05 385.211 152.22 385.781 152.56C386.361 152.89 386.816 153.36 387.146 153.97C387.476 154.57 387.641 155.265 387.641 156.055C387.641 156.105 387.636 156.16 387.626 156.22C387.626 156.27 387.626 156.325 387.626 156.385H380.771V155.59H387.056L386.636 155.905C386.636 155.335 386.511 154.83 386.261 154.39C386.021 153.94 385.691 153.59 385.271 153.34C384.851 153.09 384.366 152.965 383.816 152.965C383.276 152.965 382.791 153.09 382.361 153.34C381.931 153.59 381.596 153.94 381.356 154.39C381.116 154.84 380.996 155.355 380.996 155.935V156.1C380.996 156.7 381.126 157.23 381.386 157.69C381.656 158.14 382.026 158.495 382.496 158.755C382.976 159.005 383.521 159.13 384.131 159.13C384.611 159.13 385.056 159.045 385.466 158.875C385.886 158.705 386.246 158.445 386.546 158.095L387.146 158.785C386.796 159.205 386.356 159.525 385.826 159.745C385.306 159.965 384.731 160.075 384.101 160.075ZM389.809 160V152.125H390.829V154.255L390.664 153.88C390.904 153.31 391.289 152.865 391.819 152.545C392.359 152.215 392.994 152.05 393.724 152.05C394.494 152.05 395.149 152.245 395.689 152.635C396.229 153.015 396.579 153.59 396.739 154.36L396.319 154.195C396.549 153.555 396.954 153.04 397.534 152.65C398.124 152.25 398.829 152.05 399.649 152.05C400.289 152.05 400.844 152.175 401.314 152.425C401.794 152.665 402.164 153.035 402.424 153.535C402.694 154.035 402.829 154.665 402.829 155.425V160H401.764V155.53C401.764 154.7 401.564 154.075 401.164 153.655C400.774 153.225 400.219 153.01 399.499 153.01C398.959 153.01 398.489 153.125 398.089 153.355C397.699 153.575 397.394 153.9 397.174 154.33C396.964 154.75 396.859 155.26 396.859 155.86V160H395.794V155.53C395.794 154.7 395.594 154.075 395.194 153.655C394.794 153.225 394.234 153.01 393.514 153.01C392.984 153.01 392.519 153.125 392.119 153.355C391.719 153.575 391.409 153.9 391.189 154.33C390.979 154.75 390.874 155.26 390.874 155.86V160H389.809ZM409.062 160.075C408.242 160.075 407.522 159.905 406.902 159.565C406.282 159.215 405.797 158.74 405.447 158.14C405.097 157.53 404.922 156.835 404.922 156.055C404.922 155.275 405.087 154.585 405.417 153.985C405.757 153.385 406.217 152.915 406.797 152.575C407.387 152.225 408.047 152.05 408.777 152.05C409.517 152.05 410.172 152.22 410.742 152.56C411.322 152.89 411.777 153.36 412.107 153.97C412.437 154.57 412.602 155.265 412.602 156.055C412.602 156.105 412.597 156.16 412.587 156.22C412.587 156.27 412.587 156.325 412.587 156.385H405.732V155.59H412.017L411.597 155.905C411.597 155.335 411.472 154.83 411.222 154.39C410.982 153.94 410.652 153.59 410.232 153.34C409.812 153.09 409.327 152.965 408.777 152.965C408.237 152.965 407.752 153.09 407.322 153.34C406.892 153.59 406.557 153.94 406.317 154.39C406.077 154.84 405.957 155.355 405.957 155.935V156.1C405.957 156.7 406.087 157.23 406.347 157.69C406.617 158.14 406.987 158.495 407.457 158.755C407.937 159.005 408.482 159.13 409.092 159.13C409.572 159.13 410.017 159.045 410.427 158.875C410.847 158.705 411.207 158.445 411.507 158.095L412.107 158.785C411.757 159.205 411.317 159.525 410.787 159.745C410.267 159.965 409.692 160.075 409.062 160.075Z" fill="#00D9FF"/>
<circle cx="225" cy="258" r="49.5" stroke="#00D9FF"/>
<circle cx="225" cy="258" r="64.5" stroke="#00D9FF"/>
<circle cx="225" cy="258" r="65" fill="#00D9FF" fill-opacity="0.13"/>
<path d="M180 257.5H188.926C191.171 257.5 193.279 256.424 194.596 254.606L200.679 246.205C201.844 244.596 204.224 244.544 205.459 246.101L212.698 255.228C213.836 256.663 215.568 257.5 217.399 257.5H225H230.478C232.12 257.5 233.721 258.005 235.066 258.946L245.886 266.521C247.102 267.371 248.756 267.206 249.779 266.132L256.227 259.362C257.359 258.173 258.929 257.5 260.571 257.5H270" stroke="#00D9FF"/>
</svg>
