<svg width="451" height="351" viewBox="0 0 451 351" fill="none" xmlns="http://www.w3.org/2000/svg">
<rect width="450.435" height="350.339" fill="#0C3808"/>
<path d="M141 212.543L177.147 186.951V193.743L167.691 200.387L149.82 212.543L167.691 224.699L177.147 231.343V238.135L141 212.543Z" fill="white"/>
<path d="M308.781 212.533L272.635 238.125V231.333L282.091 224.689L299.961 212.533L282.091 200.377L272.635 193.733V186.941L308.781 212.533Z" fill="white"/>
<path d="M201.891 238C197.044 238 193.478 237.114 191.195 235.343C188.911 233.572 187.769 230.869 187.769 227.234C187.769 225.743 187.886 224.391 188.119 223.179L194.201 189.064H200.842L194.76 223.179C194.574 224.577 194.48 225.51 194.48 225.976C194.48 228.259 195.133 229.96 196.438 231.079C197.743 232.198 199.77 232.757 202.52 232.757H218.319L217.41 238H201.891ZM241.091 238.769C236.71 238.769 233.168 238.07 230.465 236.672C227.808 235.227 225.595 233.013 223.824 230.03L229.067 226.185C230.418 228.749 232.096 230.613 234.1 231.778C236.104 232.943 238.598 233.526 241.58 233.526C245.961 233.526 249.433 232.617 251.997 230.799C254.56 228.935 255.842 226.465 255.842 223.389C255.842 221.898 255.306 220.709 254.234 219.824C253.209 218.938 251.904 218.262 250.319 217.796C248.734 217.284 246.497 216.724 243.608 216.119L242 215.769C238.271 214.93 235.405 213.602 233.401 211.784C231.397 209.92 230.395 207.38 230.395 204.164C230.395 201.042 231.164 198.292 232.702 195.915C234.287 193.491 236.524 191.627 239.413 190.322C242.303 188.971 245.705 188.295 249.62 188.295C253.814 188.295 257.287 188.971 260.036 190.322C262.786 191.674 264.767 193.631 265.979 196.194L260.875 199.83C258.405 195.635 254.537 193.538 249.27 193.538C245.542 193.538 242.582 194.447 240.392 196.264C238.248 198.035 237.176 200.412 237.176 203.395C237.176 205.586 238.038 207.193 239.763 208.219C241.487 209.198 243.934 209.99 247.103 210.596C250.412 211.295 253.092 212.017 255.143 212.763C257.24 213.462 259.011 214.627 260.456 216.258C261.901 217.843 262.623 220.01 262.623 222.76C262.623 225.929 261.737 228.725 259.966 231.149C258.242 233.572 255.749 235.46 252.486 236.812C249.27 238.117 245.472 238.769 241.091 238.769Z" fill="white"/>
<path d="M107.164 98.0638H126.878C131.353 98.0638 134.778 99.1124 137.155 101.21C139.532 103.26 140.72 106.266 140.72 110.228C140.72 113.677 139.951 116.706 138.413 119.316C136.922 121.879 134.801 123.883 132.052 125.328C129.349 126.726 126.203 127.426 122.614 127.426H108.632L105.207 147H98.5654L107.164 98.0638ZM123.243 122.182C126.552 122.182 129.185 121.087 131.143 118.897C133.1 116.706 134.079 113.863 134.079 110.368C134.079 108.084 133.427 106.336 132.122 105.125C130.817 103.913 128.952 103.307 126.529 103.307H112.897L109.541 122.182H123.243ZM153.607 147.769C149.412 147.769 146.196 146.86 143.959 145.043C141.722 143.178 140.604 140.685 140.604 137.562C140.604 136.723 140.673 135.884 140.813 135.046L142.421 126.097C143.12 122.089 144.798 118.967 147.455 116.729C150.111 114.492 153.77 113.374 158.43 113.374C162.578 113.374 165.724 114.283 167.868 116.1C170.058 117.918 171.154 120.388 171.154 123.511C171.154 124.303 171.084 125.165 170.944 126.097L169.406 135.046C168.707 139.007 167.052 142.13 164.442 144.413C161.833 146.65 158.221 147.769 153.607 147.769ZM153.676 142.945C156.38 142.945 158.547 142.223 160.178 140.778C161.809 139.333 162.835 137.422 163.254 135.046L164.792 126.097C164.932 125.398 165.002 124.746 165.002 124.14C165.002 122.322 164.419 120.877 163.254 119.805C162.135 118.734 160.388 118.198 158.011 118.198C155.308 118.198 153.164 118.92 151.579 120.365C149.995 121.81 148.993 123.72 148.573 126.097L146.965 135.046C146.872 135.465 146.825 136.094 146.825 136.933C146.825 138.797 147.385 140.265 148.503 141.337C149.622 142.409 151.346 142.945 153.676 142.945ZM198.185 113.374C199.164 113.374 200.143 113.49 201.122 113.723C202.147 113.956 202.963 114.329 203.568 114.842L201.052 120.225C199.747 119.293 198.162 118.827 196.298 118.827C193.968 118.827 191.917 119.782 190.146 121.693C188.422 123.557 186.977 125.888 185.812 128.684L182.596 147H176.444L180.918 121.483C181.011 120.924 181.058 120.551 181.058 120.365C181.058 119.759 180.895 119.2 180.568 118.687C180.289 118.128 179.823 117.545 179.17 116.939L183.365 113.374C184.763 114.166 185.765 115.028 186.371 115.96C186.977 116.846 187.28 117.941 187.28 119.246C187.28 119.759 187.256 120.178 187.21 120.505C190.053 115.751 193.711 113.374 198.185 113.374ZM210.964 136.584C210.824 137.283 210.754 137.935 210.754 138.541C210.754 141.151 212.129 142.456 214.879 142.456H219.283L218.444 147.28H214.04C210.871 147.28 208.494 146.674 206.909 145.462C205.325 144.25 204.532 142.316 204.532 139.66C204.532 138.588 204.626 137.562 204.812 136.584L209.985 107.362C210.032 107.129 210.055 106.802 210.055 106.383C210.055 105.73 209.915 105.125 209.636 104.565C209.356 104.006 208.867 103.423 208.168 102.818L212.362 99.2522C213.76 100.045 214.762 100.93 215.368 101.909C216.021 102.841 216.347 103.959 216.347 105.264C216.347 105.87 216.277 106.569 216.137 107.362L214.949 114.143H224.317L223.408 118.967H214.11L210.964 136.584ZM251.365 96.4559L250.526 101.28H248.219C245.889 101.28 244.002 101.955 242.557 103.307C241.112 104.659 240.157 106.639 239.691 109.249L238.852 114.143H248.219L247.381 118.967H238.013L233.049 147H226.897L233.539 109.249C234.284 105.101 235.985 101.932 238.642 99.7416C241.298 97.5511 244.747 96.4559 248.988 96.4559H251.365ZM261.952 147.769C257.757 147.769 254.541 146.86 252.304 145.043C250.067 143.178 248.949 140.685 248.949 137.562C248.949 136.723 249.019 135.884 249.158 135.046L250.766 126.097C251.465 122.089 253.143 118.967 255.8 116.729C258.456 114.492 262.115 113.374 266.775 113.374C270.923 113.374 274.069 114.283 276.213 116.1C278.404 117.918 279.499 120.388 279.499 123.511C279.499 124.303 279.429 125.165 279.289 126.097L277.751 135.046C277.052 139.007 275.397 142.13 272.788 144.413C270.178 146.65 266.566 147.769 261.952 147.769ZM262.022 142.945C264.725 142.945 266.892 142.223 268.523 140.778C270.154 139.333 271.18 137.422 271.599 135.046L273.137 126.097C273.277 125.398 273.347 124.746 273.347 124.14C273.347 122.322 272.764 120.877 271.599 119.805C270.481 118.734 268.733 118.198 266.356 118.198C263.653 118.198 261.509 118.92 259.924 120.365C258.34 121.81 257.338 123.72 256.918 126.097L255.31 135.046C255.217 135.465 255.17 136.094 255.17 136.933C255.17 138.797 255.73 140.265 256.848 141.337C257.967 142.409 259.691 142.945 262.022 142.945ZM289.822 147.769C288.471 146.883 287.469 145.951 286.816 144.973C286.164 143.994 285.838 142.852 285.838 141.547C285.838 140.988 285.907 140.359 286.047 139.66L292.339 103.866C292.432 103.307 292.479 102.934 292.479 102.748C292.479 102.142 292.316 101.583 291.99 101.07C291.71 100.557 291.244 99.9979 290.591 99.3921L294.716 95.7568C296.068 96.6423 297.046 97.5744 297.652 98.5532C298.305 99.5319 298.631 100.674 298.631 101.979C298.631 102.818 298.584 103.447 298.491 103.866L292.199 139.66C292.106 140.219 292.059 140.592 292.059 140.778C292.059 141.384 292.199 141.943 292.479 142.456C292.805 142.969 293.294 143.528 293.947 144.134L289.822 147.769ZM312.131 107.711C311.199 107.711 310.407 107.408 309.755 106.802C309.149 106.197 308.846 105.428 308.846 104.495C308.846 103.33 309.312 102.282 310.244 101.35C311.223 100.371 312.318 99.8814 313.53 99.8814C314.462 99.8814 315.231 100.208 315.837 100.86C316.442 101.466 316.745 102.235 316.745 103.167C316.745 104.332 316.256 105.381 315.277 106.313C314.345 107.245 313.297 107.711 312.131 107.711ZM307.238 147.769C305.84 146.837 304.814 145.881 304.162 144.903C303.556 143.924 303.253 142.782 303.253 141.477C303.253 140.685 303.3 140.079 303.393 139.66L307.937 114.143H314.089L309.545 139.66C309.498 139.893 309.475 140.219 309.475 140.638C309.475 141.291 309.615 141.897 309.894 142.456C310.221 142.969 310.71 143.528 311.362 144.134L307.238 147.769ZM333.089 147.769C328.895 147.769 325.679 146.86 323.442 145.043C321.205 143.178 320.086 140.685 320.086 137.562C320.086 136.723 320.156 135.884 320.296 135.046L321.904 126.097C322.603 122.089 324.281 118.967 326.937 116.729C329.594 114.492 333.252 113.374 337.913 113.374C342.061 113.374 345.207 114.283 347.351 116.1C349.541 117.918 350.636 120.388 350.636 123.511C350.636 124.303 350.567 125.165 350.427 126.097L348.889 135.046C348.19 139.007 346.535 142.13 343.925 144.413C341.315 146.65 337.703 147.769 333.089 147.769ZM333.159 142.945C335.862 142.945 338.03 142.223 339.661 140.778C341.292 139.333 342.317 137.422 342.737 135.046L344.275 126.097C344.415 125.398 344.485 124.746 344.485 124.14C344.485 122.322 343.902 120.877 342.737 119.805C341.618 118.734 339.871 118.198 337.494 118.198C334.79 118.198 332.647 118.92 331.062 120.365C329.477 121.81 328.475 123.72 328.056 126.097L326.448 135.046C326.355 135.465 326.308 136.094 326.308 136.933C326.308 138.797 326.867 140.265 327.986 141.337C329.105 142.409 330.829 142.945 333.159 142.945Z" fill="white"/>
</svg>
